<?xml version="1.0" encoding="UTF-8" standalone="no"?><!DOCTYPE svg PUBLIC "-//W3C//DTD SVG 1.1//EN" "http://www.w3.org/Graphics/SVG/1.1/DTD/svg11.dtd"><svg width="100%" height="100%" viewBox="0 0 900 500" version="1.1" xmlns="http://www.w3.org/2000/svg" xmlns:xlink="http://www.w3.org/1999/xlink" xml:space="preserve" xmlns:serif="http://www.serif.com/" style="fill-rule:evenodd;clip-rule:evenodd;stroke-linecap:round;stroke-linejoin:round;stroke-miterlimit:1.5;"><g><rect x="85.863" y="250" width="4.85" height="35.825" style="fill-rule:nonzero;"/><path d="M115.663,265c-0.133,0.183 -0.266,0.325 -0.4,0.425c-0.133,0.1 -0.316,0.15 -0.55,0.15c-0.25,0 -0.525,-0.104 -0.825,-0.312c-0.3,-0.209 -0.671,-0.438 -1.112,-0.688c-0.442,-0.25 -0.984,-0.479 -1.625,-0.687c-0.642,-0.209 -1.429,-0.313 -2.363,-0.313c-1.25,0 -2.35,0.221 -3.3,0.663c-0.95,0.441 -1.746,1.079 -2.387,1.912c-0.642,0.833 -1.125,1.842 -1.45,3.025c-0.325,1.183 -0.488,2.508 -0.488,3.975c0,1.533 0.175,2.896 0.525,4.088c0.35,1.191 0.846,2.191 1.488,3c0.641,0.808 1.416,1.425 2.325,1.85c0.908,0.425 1.929,0.637 3.062,0.637c1.084,0 1.975,-0.129 2.675,-0.387c0.7,-0.259 1.279,-0.546 1.738,-0.863c0.458,-0.317 0.841,-0.604 1.15,-0.862c0.308,-0.259 0.612,-0.388 0.912,-0.388c0.367,0 0.65,0.142 0.85,0.425l1.25,1.625c-0.55,0.683 -1.175,1.267 -1.875,1.75c-0.7,0.483 -1.454,0.887 -2.262,1.213c-0.809,0.325 -1.654,0.562 -2.538,0.712c-0.883,0.15 -1.783,0.225 -2.7,0.225c-1.583,0 -3.054,-0.292 -4.412,-0.875c-1.359,-0.583 -2.538,-1.429 -3.538,-2.538c-1,-1.108 -1.783,-2.47 -2.35,-4.087c-0.566,-1.617 -0.85,-3.458 -0.85,-5.525c0,-1.883 0.263,-3.625 0.788,-5.225c0.525,-1.6 1.291,-2.979 2.3,-4.138c1.008,-1.158 2.25,-2.062 3.725,-2.712c1.475,-0.65 3.171,-0.975 5.087,-0.975c1.784,0 3.354,0.287 4.713,0.862c1.358,0.575 2.562,1.388 3.612,2.438l-1.175,1.6Z" style="fill-rule:nonzero;"/><path d="M126.388,263.875c1.084,-1.15 2.284,-2.067 3.6,-2.75c1.317,-0.683 2.834,-1.025 4.55,-1.025c1.384,0 2.604,0.229 3.663,0.688c1.058,0.458 1.941,1.108 2.65,1.95c0.708,0.841 1.246,1.854 1.612,3.037c0.367,1.183 0.55,2.492 0.55,3.925l0,16.125l-4.475,0l0,-16.125c0,-1.917 -0.437,-3.404 -1.312,-4.462c-0.875,-1.059 -2.204,-1.588 -3.988,-1.588c-1.316,0 -2.546,0.317 -3.687,0.95c-1.142,0.633 -2.196,1.492 -3.163,2.575l0,18.65l-4.475,0l0,-36.825l4.475,0l0,14.875Z" style="fill-rule:nonzero;"/><path d="M205.163,270.4c0,-1.033 -0.146,-1.979 -0.437,-2.837c-0.292,-0.859 -0.717,-1.6 -1.275,-2.225c-0.559,-0.625 -1.238,-1.109 -2.038,-1.45c-0.8,-0.342 -1.708,-0.513 -2.725,-0.513c-2.133,0 -3.821,0.621 -5.062,1.863c-1.242,1.241 -2.013,2.962 -2.313,5.162l13.85,0Zm3.6,11.875c-0.55,0.667 -1.208,1.246 -1.975,1.738c-0.766,0.491 -1.587,0.895 -2.462,1.212c-0.875,0.317 -1.779,0.554 -2.713,0.713c-0.933,0.158 -1.858,0.237 -2.775,0.237c-1.75,0 -3.362,-0.296 -4.837,-0.887c-1.475,-0.592 -2.75,-1.459 -3.825,-2.6c-1.075,-1.142 -1.913,-2.555 -2.513,-4.238c-0.6,-1.683 -0.9,-3.617 -0.9,-5.8c0,-1.767 0.271,-3.417 0.813,-4.95c0.541,-1.533 1.321,-2.862 2.337,-3.987c1.017,-1.125 2.259,-2.009 3.725,-2.65c1.467,-0.642 3.117,-0.963 4.95,-0.963c1.517,0 2.921,0.254 4.213,0.763c1.291,0.508 2.408,1.241 3.35,2.2c0.941,0.958 1.679,2.141 2.212,3.55c0.534,1.408 0.8,3.012 0.8,4.812c0,0.7 -0.075,1.167 -0.225,1.4c-0.15,0.233 -0.433,0.35 -0.85,0.35l-16.925,0c0.05,1.6 0.271,2.992 0.663,4.175c0.391,1.183 0.937,2.171 1.637,2.963c0.7,0.791 1.534,1.383 2.5,1.775c0.967,0.391 2.05,0.587 3.25,0.587c1.117,0 2.079,-0.129 2.888,-0.387c0.808,-0.259 1.504,-0.538 2.087,-0.838c0.584,-0.3 1.071,-0.579 1.463,-0.837c0.391,-0.259 0.729,-0.388 1.012,-0.388c0.367,0 0.65,0.142 0.85,0.425l1.25,1.625Z" style="fill-rule:nonzero;"/><path d="M229.363,264.675c-0.2,0.367 -0.508,0.55 -0.925,0.55c-0.25,0 -0.533,-0.092 -0.85,-0.275c-0.316,-0.183 -0.704,-0.387 -1.162,-0.613c-0.459,-0.224 -1.004,-0.433 -1.638,-0.625c-0.633,-0.191 -1.383,-0.287 -2.25,-0.287c-0.75,0 -1.425,0.096 -2.025,0.287c-0.6,0.192 -1.112,0.455 -1.537,0.788c-0.425,0.333 -0.75,0.721 -0.975,1.162c-0.225,0.442 -0.338,0.921 -0.338,1.438c0,0.65 0.188,1.192 0.563,1.625c0.375,0.433 0.871,0.808 1.487,1.125c0.617,0.317 1.317,0.596 2.1,0.838c0.784,0.241 1.588,0.5 2.413,0.774c0.825,0.276 1.629,0.58 2.412,0.913c0.784,0.333 1.484,0.75 2.1,1.25c0.617,0.5 1.113,1.113 1.488,1.837c0.375,0.726 0.562,1.596 0.562,2.613c0,1.167 -0.208,2.246 -0.625,3.238c-0.416,0.991 -1.033,1.849 -1.85,2.575c-0.816,0.725 -1.816,1.295 -3,1.712c-1.183,0.417 -2.55,0.625 -4.1,0.625c-1.766,0 -3.366,-0.287 -4.8,-0.862c-1.433,-0.575 -2.65,-1.313 -3.65,-2.213l1.05,-1.7c0.134,-0.217 0.292,-0.383 0.475,-0.5c0.184,-0.117 0.417,-0.175 0.7,-0.175c0.3,0 0.617,0.117 0.95,0.35c0.334,0.233 0.738,0.492 1.213,0.775c0.475,0.283 1.054,0.542 1.737,0.775c0.684,0.233 1.534,0.35 2.55,0.35c0.867,0 1.625,-0.112 2.275,-0.337c0.65,-0.225 1.192,-0.53 1.625,-0.913c0.434,-0.383 0.754,-0.825 0.963,-1.325c0.208,-0.5 0.312,-1.033 0.312,-1.6c0,-0.7 -0.187,-1.279 -0.562,-1.737c-0.375,-0.459 -0.871,-0.85 -1.488,-1.175c-0.616,-0.325 -1.321,-0.609 -2.112,-0.85c-0.792,-0.242 -1.6,-0.496 -2.425,-0.763c-0.825,-0.267 -1.634,-0.571 -2.425,-0.912c-0.792,-0.342 -1.496,-0.771 -2.113,-1.288c-0.616,-0.517 -1.112,-1.154 -1.487,-1.912c-0.375,-0.759 -0.563,-1.68 -0.563,-2.763c0,-0.967 0.2,-1.896 0.6,-2.787c0.4,-0.892 0.984,-1.675 1.75,-2.35c0.767,-0.675 1.709,-1.213 2.825,-1.613c1.117,-0.4 2.392,-0.6 3.825,-0.6c1.667,0 3.163,0.263 4.488,0.788c1.325,0.525 2.471,1.245 3.437,2.162l-1,1.625Z" style="fill-rule:nonzero;"/><path d="M251.013,264.675c-0.2,0.367 -0.508,0.55 -0.925,0.55c-0.25,0 -0.533,-0.092 -0.85,-0.275c-0.316,-0.183 -0.704,-0.387 -1.162,-0.613c-0.459,-0.224 -1.004,-0.433 -1.638,-0.625c-0.633,-0.191 -1.383,-0.287 -2.25,-0.287c-0.75,0 -1.425,0.096 -2.025,0.287c-0.6,0.192 -1.112,0.455 -1.537,0.788c-0.425,0.333 -0.75,0.721 -0.975,1.162c-0.225,0.442 -0.338,0.921 -0.338,1.438c0,0.65 0.188,1.192 0.563,1.625c0.375,0.433 0.871,0.808 1.487,1.125c0.617,0.317 1.317,0.596 2.1,0.838c0.784,0.241 1.588,0.5 2.413,0.774c0.825,0.276 1.629,0.58 2.412,0.913c0.784,0.333 1.484,0.75 2.1,1.25c0.617,0.5 1.113,1.113 1.488,1.837c0.375,0.726 0.562,1.596 0.562,2.613c0,1.167 -0.208,2.246 -0.625,3.238c-0.416,0.991 -1.033,1.849 -1.85,2.575c-0.816,0.725 -1.816,1.295 -3,1.712c-1.183,0.417 -2.55,0.625 -4.1,0.625c-1.766,0 -3.366,-0.287 -4.8,-0.862c-1.433,-0.575 -2.65,-1.313 -3.65,-2.213l1.05,-1.7c0.134,-0.217 0.292,-0.383 0.475,-0.5c0.184,-0.117 0.417,-0.175 0.7,-0.175c0.3,0 0.617,0.117 0.95,0.35c0.334,0.233 0.738,0.492 1.213,0.775c0.475,0.283 1.054,0.542 1.737,0.775c0.684,0.233 1.534,0.35 2.55,0.35c0.867,0 1.625,-0.112 2.275,-0.337c0.65,-0.225 1.192,-0.53 1.625,-0.913c0.434,-0.383 0.754,-0.825 0.963,-1.325c0.208,-0.5 0.312,-1.033 0.312,-1.6c0,-0.7 -0.187,-1.279 -0.562,-1.737c-0.375,-0.459 -0.871,-0.85 -1.488,-1.175c-0.616,-0.325 -1.321,-0.609 -2.112,-0.85c-0.792,-0.242 -1.6,-0.496 -2.425,-0.763c-0.825,-0.267 -1.634,-0.571 -2.425,-0.912c-0.792,-0.342 -1.496,-0.771 -2.113,-1.288c-0.616,-0.517 -1.112,-1.154 -1.487,-1.912c-0.375,-0.759 -0.563,-1.68 -0.563,-2.763c0,-0.967 0.2,-1.896 0.6,-2.787c0.4,-0.892 0.984,-1.675 1.75,-2.35c0.767,-0.675 1.709,-1.213 2.825,-1.613c1.117,-0.4 2.392,-0.6 3.825,-0.6c1.667,0 3.163,0.263 4.488,0.788c1.325,0.525 2.471,1.245 3.437,2.162l-1,1.625Z" style="fill-rule:nonzero;"/><path d="M274.863,270.4c0,-1.033 -0.146,-1.979 -0.437,-2.837c-0.292,-0.859 -0.717,-1.6 -1.275,-2.225c-0.559,-0.625 -1.238,-1.109 -2.038,-1.45c-0.8,-0.342 -1.708,-0.513 -2.725,-0.513c-2.133,0 -3.821,0.621 -5.062,1.863c-1.242,1.241 -2.013,2.962 -2.313,5.162l13.85,0Zm3.6,11.875c-0.55,0.667 -1.208,1.246 -1.975,1.738c-0.766,0.491 -1.587,0.895 -2.462,1.212c-0.875,0.317 -1.779,0.554 -2.713,0.713c-0.933,0.158 -1.858,0.237 -2.775,0.237c-1.75,0 -3.362,-0.296 -4.837,-0.887c-1.475,-0.592 -2.75,-1.459 -3.825,-2.6c-1.075,-1.142 -1.913,-2.555 -2.513,-4.238c-0.6,-1.683 -0.9,-3.617 -0.9,-5.8c0,-1.767 0.271,-3.417 0.813,-4.95c0.541,-1.533 1.321,-2.862 2.337,-3.987c1.017,-1.125 2.259,-2.009 3.725,-2.65c1.467,-0.642 3.117,-0.963 4.95,-0.963c1.517,0 2.921,0.254 4.213,0.763c1.291,0.508 2.408,1.241 3.35,2.2c0.941,0.958 1.679,2.141 2.212,3.55c0.534,1.408 0.8,3.012 0.8,4.812c0,0.7 -0.075,1.167 -0.225,1.4c-0.15,0.233 -0.433,0.35 -0.85,0.35l-16.925,0c0.05,1.6 0.271,2.992 0.663,4.175c0.391,1.183 0.937,2.171 1.637,2.963c0.7,0.791 1.534,1.383 2.5,1.775c0.967,0.391 2.05,0.587 3.25,0.587c1.117,0 2.079,-0.129 2.888,-0.387c0.808,-0.259 1.504,-0.538 2.087,-0.838c0.584,-0.3 1.071,-0.579 1.463,-0.837c0.391,-0.259 0.729,-0.388 1.012,-0.388c0.367,0 0.65,0.142 0.85,0.425l1.25,1.625Z" style="fill-rule:nonzero;"/><path d="M340.188,262.4c0,0.317 -0.054,0.625 -0.162,0.925c-0.109,0.3 -0.254,0.558 -0.438,0.775l-13.725,18.25l13.85,0l0,3.475l-19.075,0l0,-1.85c0,-0.217 0.05,-0.471 0.15,-0.762c0.1,-0.292 0.25,-0.571 0.45,-0.838l13.8,-18.375l-13.625,0l0,-3.5l18.775,0l0,1.9Z" style="fill-rule:nonzero;"/><path d="M344.563,283.075c0,-0.433 0.079,-0.842 0.238,-1.225c0.158,-0.383 0.375,-0.717 0.65,-1c0.275,-0.283 0.604,-0.508 0.987,-0.675c0.384,-0.167 0.792,-0.25 1.225,-0.25c0.434,0 0.842,0.083 1.225,0.25c0.384,0.167 0.717,0.392 1,0.675c0.284,0.283 0.509,0.617 0.675,1c0.167,0.383 0.25,0.792 0.25,1.225c0,0.45 -0.083,0.863 -0.25,1.238c-0.166,0.375 -0.391,0.704 -0.675,0.987c-0.283,0.283 -0.616,0.504 -1,0.663c-0.383,0.158 -0.791,0.237 -1.225,0.237c-0.433,0 -0.841,-0.079 -1.225,-0.238c-0.383,-0.158 -0.712,-0.379 -0.987,-0.662c-0.275,-0.283 -0.492,-0.613 -0.65,-0.988c-0.159,-0.375 -0.238,-0.787 -0.238,-1.237Z" style="fill-rule:nonzero;"/><path d="M370.738,281.975c1.384,0 2.575,-0.158 3.575,-0.475c1,-0.317 1.821,-0.762 2.463,-1.337c0.641,-0.575 1.112,-1.259 1.412,-2.05c0.3,-0.792 0.45,-1.663 0.45,-2.613c0,-1.85 -0.658,-3.312 -1.975,-4.387c-1.316,-1.075 -3.291,-1.613 -5.925,-1.613l-7.75,0l0,12.475l7.75,0Zm-7.75,-28.15l0,12.225l6.4,0c1.367,0 2.554,-0.15 3.563,-0.45c1.008,-0.3 1.841,-0.717 2.5,-1.25c0.658,-0.533 1.146,-1.179 1.462,-1.938c0.317,-0.758 0.475,-1.587 0.475,-2.487c0,-2.117 -0.633,-3.662 -1.9,-4.637c-1.266,-0.975 -3.233,-1.463 -5.9,-1.463l-6.6,0Zm6.6,-3.825c2.2,0 4.096,0.217 5.688,0.65c1.591,0.433 2.9,1.05 3.925,1.85c1.025,0.8 1.779,1.779 2.262,2.938c0.484,1.158 0.725,2.462 0.725,3.912c0,0.883 -0.137,1.729 -0.412,2.538c-0.275,0.808 -0.688,1.562 -1.238,2.262c-0.55,0.7 -1.246,1.329 -2.087,1.887c-0.842,0.559 -1.829,1.013 -2.963,1.363c2.634,0.5 4.613,1.438 5.938,2.813c1.325,1.375 1.987,3.179 1.987,5.412c0,1.517 -0.279,2.9 -0.837,4.15c-0.559,1.25 -1.375,2.325 -2.45,3.225c-1.075,0.9 -2.396,1.596 -3.963,2.088c-1.566,0.491 -3.35,0.737 -5.35,0.737l-12.65,0l0,-35.825l11.425,0Z" style="fill-rule:nonzero;"/><path d="M388.688,283.075c0,-0.433 0.079,-0.842 0.238,-1.225c0.158,-0.383 0.375,-0.717 0.65,-1c0.275,-0.283 0.604,-0.508 0.987,-0.675c0.384,-0.167 0.792,-0.25 1.225,-0.25c0.434,0 0.842,0.083 1.225,0.25c0.384,0.167 0.717,0.392 1,0.675c0.284,0.283 0.509,0.617 0.675,1c0.167,0.383 0.25,0.792 0.25,1.225c0,0.45 -0.083,0.863 -0.25,1.238c-0.166,0.375 -0.391,0.704 -0.675,0.987c-0.283,0.283 -0.616,0.504 -1,0.663c-0.383,0.158 -0.791,0.237 -1.225,0.237c-0.433,0 -0.841,-0.079 -1.225,-0.238c-0.383,-0.158 -0.712,-0.379 -0.987,-0.662c-0.275,-0.283 -0.492,-0.613 -0.65,-0.988c-0.159,-0.375 -0.238,-0.787 -0.238,-1.237Z" style="fill-rule:nonzero;"/><path d="M448.463,273.45c0.9,0 1.692,-0.125 2.375,-0.375c0.684,-0.25 1.259,-0.6 1.725,-1.05c0.467,-0.45 0.817,-0.987 1.05,-1.612c0.234,-0.625 0.35,-1.313 0.35,-2.063c0,-1.55 -0.471,-2.783 -1.412,-3.7c-0.942,-0.917 -2.304,-1.375 -4.088,-1.375c-1.8,0 -3.171,0.458 -4.112,1.375c-0.942,0.917 -1.413,2.15 -1.413,3.7c0,0.75 0.121,1.438 0.363,2.063c0.241,0.625 0.596,1.162 1.062,1.612c0.467,0.45 1.042,0.8 1.725,1.05c0.684,0.25 1.475,0.375 2.375,0.375Zm8.025,13.75c0,-0.617 -0.175,-1.117 -0.525,-1.5c-0.35,-0.383 -0.821,-0.683 -1.412,-0.9c-0.592,-0.217 -1.279,-0.371 -2.063,-0.462c-0.783,-0.092 -1.612,-0.163 -2.487,-0.213c-0.875,-0.05 -1.763,-0.1 -2.663,-0.15c-0.9,-0.05 -1.766,-0.133 -2.6,-0.25c-0.933,0.433 -1.696,0.979 -2.287,1.638c-0.592,0.658 -0.888,1.429 -0.888,2.312c0,0.567 0.146,1.096 0.438,1.588c0.291,0.491 0.737,0.916 1.337,1.274c0.6,0.359 1.354,0.642 2.263,0.851c0.908,0.208 1.979,0.312 3.212,0.312c1.2,0 2.275,-0.108 3.225,-0.325c0.95,-0.217 1.754,-0.525 2.413,-0.925c0.658,-0.4 1.162,-0.875 1.512,-1.425c0.35,-0.55 0.525,-1.158 0.525,-1.825Zm4.525,-25.7l0,1.65c0,0.55 -0.35,0.9 -1.05,1.05l-2.875,0.375c0.567,1.1 0.85,2.317 0.85,3.65c0,1.233 -0.237,2.354 -0.712,3.363c-0.475,1.008 -1.129,1.87 -1.963,2.587c-0.833,0.717 -1.833,1.267 -3,1.65c-1.166,0.383 -2.433,0.575 -3.8,0.575c-1.183,0 -2.3,-0.142 -3.35,-0.425c-0.533,0.333 -0.941,0.688 -1.225,1.063c-0.283,0.375 -0.425,0.754 -0.425,1.137c0,0.6 0.246,1.054 0.738,1.363c0.491,0.308 1.137,0.529 1.937,0.662c0.8,0.133 1.713,0.217 2.738,0.25c1.025,0.033 2.075,0.088 3.15,0.163c1.075,0.075 2.125,0.204 3.15,0.387c1.025,0.183 1.937,0.483 2.737,0.9c0.8,0.417 1.446,0.992 1.938,1.725c0.491,0.733 0.737,1.683 0.737,2.85c0,1.083 -0.271,2.133 -0.812,3.15c-0.542,1.017 -1.321,1.921 -2.338,2.713c-1.016,0.791 -2.262,1.425 -3.737,1.9c-1.475,0.475 -3.138,0.712 -4.988,0.712c-1.85,0 -3.466,-0.183 -4.85,-0.55c-1.383,-0.367 -2.533,-0.858 -3.45,-1.475c-0.916,-0.617 -1.604,-1.329 -2.062,-2.137c-0.459,-0.809 -0.688,-1.655 -0.688,-2.538c0,-1.25 0.392,-2.308 1.175,-3.175c0.784,-0.867 1.859,-1.558 3.225,-2.075c-0.75,-0.333 -1.346,-0.779 -1.787,-1.337c-0.442,-0.559 -0.663,-1.313 -0.663,-2.263c0,-0.367 0.067,-0.746 0.2,-1.137c0.134,-0.392 0.338,-0.784 0.613,-1.175c0.275,-0.392 0.612,-0.763 1.012,-1.113c0.4,-0.35 0.867,-0.658 1.4,-0.925c-1.25,-0.7 -2.225,-1.629 -2.925,-2.787c-0.7,-1.159 -1.05,-2.505 -1.05,-4.038c0,-1.233 0.238,-2.354 0.713,-3.362c0.475,-1.009 1.137,-1.867 1.987,-2.575c0.85,-0.709 1.863,-1.255 3.038,-1.638c1.175,-0.383 2.462,-0.575 3.862,-0.575c1.1,0 2.125,0.121 3.075,0.363c0.95,0.241 1.817,0.595 2.6,1.062l6.875,0Z" style="fill-rule:nonzero;"/><path d="M482.188,270.4c0,-1.033 -0.146,-1.979 -0.437,-2.837c-0.292,-0.859 -0.717,-1.6 -1.275,-2.225c-0.559,-0.625 -1.238,-1.109 -2.038,-1.45c-0.8,-0.342 -1.708,-0.513 -2.725,-0.513c-2.133,0 -3.821,0.621 -5.062,1.863c-1.242,1.241 -2.013,2.962 -2.313,5.162l13.85,0Zm3.6,11.875c-0.55,0.667 -1.208,1.246 -1.975,1.738c-0.766,0.491 -1.587,0.895 -2.462,1.212c-0.875,0.317 -1.779,0.554 -2.713,0.713c-0.933,0.158 -1.858,0.237 -2.775,0.237c-1.75,0 -3.362,-0.296 -4.837,-0.887c-1.475,-0.592 -2.75,-1.459 -3.825,-2.6c-1.075,-1.142 -1.913,-2.555 -2.513,-4.238c-0.6,-1.683 -0.9,-3.617 -0.9,-5.8c0,-1.767 0.271,-3.417 0.813,-4.95c0.541,-1.533 1.321,-2.862 2.337,-3.987c1.017,-1.125 2.259,-2.009 3.725,-2.65c1.467,-0.642 3.117,-0.963 4.95,-0.963c1.517,0 2.921,0.254 4.213,0.763c1.291,0.508 2.408,1.241 3.35,2.2c0.941,0.958 1.679,2.141 2.212,3.55c0.534,1.408 0.8,3.012 0.8,4.812c0,0.7 -0.075,1.167 -0.225,1.4c-0.15,0.233 -0.433,0.35 -0.85,0.35l-16.925,0c0.05,1.6 0.271,2.992 0.663,4.175c0.391,1.183 0.937,2.171 1.637,2.963c0.7,0.791 1.534,1.383 2.5,1.775c0.967,0.391 2.05,0.587 3.25,0.587c1.117,0 2.079,-0.129 2.888,-0.387c0.808,-0.259 1.504,-0.538 2.087,-0.838c0.584,-0.3 1.071,-0.579 1.463,-0.837c0.391,-0.259 0.729,-0.388 1.012,-0.388c0.367,0 0.65,0.142 0.85,0.425l1.25,1.625Z" style="fill-rule:nonzero;"/><path d="M495.863,265.575c0.8,-1.733 1.784,-3.087 2.95,-4.062c1.167,-0.975 2.592,-1.463 4.275,-1.463c0.534,0 1.046,0.058 1.538,0.175c0.491,0.117 0.929,0.3 1.312,0.55l-0.325,3.325c-0.1,0.417 -0.35,0.625 -0.75,0.625c-0.233,0 -0.575,-0.05 -1.025,-0.15c-0.45,-0.1 -0.958,-0.15 -1.525,-0.15c-0.8,0 -1.512,0.117 -2.137,0.35c-0.625,0.233 -1.184,0.579 -1.675,1.038c-0.492,0.458 -0.934,1.024 -1.325,1.7c-0.392,0.675 -0.746,1.445 -1.063,2.312l0,16l-4.475,0l0,-25.325l2.55,0c0.484,0 0.817,0.092 1,0.275c0.184,0.183 0.309,0.5 0.375,0.95l0.3,3.85Z" style="fill-rule:nonzero;"/><path d="M514.038,264.175c0.55,-0.617 1.134,-1.175 1.75,-1.675c0.617,-0.5 1.271,-0.929 1.963,-1.287c0.691,-0.359 1.425,-0.634 2.2,-0.825c0.775,-0.192 1.612,-0.288 2.512,-0.288c1.384,0 2.604,0.229 3.663,0.688c1.058,0.458 1.941,1.108 2.65,1.95c0.708,0.841 1.246,1.854 1.612,3.037c0.367,1.183 0.55,2.492 0.55,3.925l0,16.125l-4.475,0l0,-16.125c0,-1.917 -0.437,-3.404 -1.312,-4.462c-0.875,-1.059 -2.204,-1.588 -3.988,-1.588c-1.316,0 -2.546,0.317 -3.687,0.95c-1.142,0.633 -2.196,1.492 -3.163,2.575l0,18.65l-4.475,0l0,-25.325l2.675,0c0.634,0 1.025,0.308 1.175,0.925l0.35,2.75Z" style="fill-rule:nonzero;"/><path d="M554.688,270.4c0,-1.033 -0.146,-1.979 -0.437,-2.837c-0.292,-0.859 -0.717,-1.6 -1.275,-2.225c-0.559,-0.625 -1.238,-1.109 -2.038,-1.45c-0.8,-0.342 -1.708,-0.513 -2.725,-0.513c-2.133,0 -3.821,0.621 -5.062,1.863c-1.242,1.241 -2.013,2.962 -2.313,5.162l13.85,0Zm3.6,11.875c-0.55,0.667 -1.208,1.246 -1.975,1.738c-0.766,0.491 -1.587,0.895 -2.462,1.212c-0.875,0.317 -1.779,0.554 -2.713,0.713c-0.933,0.158 -1.858,0.237 -2.775,0.237c-1.75,0 -3.362,-0.296 -4.837,-0.887c-1.475,-0.592 -2.75,-1.459 -3.825,-2.6c-1.075,-1.142 -1.913,-2.555 -2.513,-4.238c-0.6,-1.683 -0.9,-3.617 -0.9,-5.8c0,-1.767 0.271,-3.417 0.813,-4.95c0.541,-1.533 1.321,-2.862 2.337,-3.987c1.017,-1.125 2.259,-2.009 3.725,-2.65c1.467,-0.642 3.117,-0.963 4.95,-0.963c1.517,0 2.921,0.254 4.213,0.763c1.291,0.508 2.408,1.241 3.35,2.2c0.941,0.958 1.679,2.141 2.212,3.55c0.534,1.408 0.8,3.012 0.8,4.812c0,0.7 -0.075,1.167 -0.225,1.4c-0.15,0.233 -0.433,0.35 -0.85,0.35l-16.925,0c0.05,1.6 0.271,2.992 0.663,4.175c0.391,1.183 0.937,2.171 1.637,2.963c0.7,0.791 1.534,1.383 2.5,1.775c0.967,0.391 2.05,0.587 3.25,0.587c1.117,0 2.079,-0.129 2.888,-0.387c0.808,-0.259 1.504,-0.538 2.087,-0.838c0.584,-0.3 1.071,-0.579 1.463,-0.837c0.391,-0.259 0.729,-0.388 1.012,-0.388c0.367,0 0.65,0.142 0.85,0.425l1.25,1.625Z" style="fill-rule:nonzero;"/><path d="M616.163,281.975c1.384,0 2.575,-0.158 3.575,-0.475c1,-0.317 1.821,-0.762 2.463,-1.337c0.641,-0.575 1.112,-1.259 1.412,-2.05c0.3,-0.792 0.45,-1.663 0.45,-2.613c0,-1.85 -0.658,-3.312 -1.975,-4.387c-1.316,-1.075 -3.291,-1.613 -5.925,-1.613l-7.75,0l0,12.475l7.75,0Zm-7.75,-28.15l0,12.225l6.4,0c1.367,0 2.554,-0.15 3.563,-0.45c1.008,-0.3 1.841,-0.717 2.5,-1.25c0.658,-0.533 1.146,-1.179 1.462,-1.938c0.317,-0.758 0.475,-1.587 0.475,-2.487c0,-2.117 -0.633,-3.662 -1.9,-4.637c-1.266,-0.975 -3.233,-1.463 -5.9,-1.463l-6.6,0Zm6.6,-3.825c2.2,0 4.096,0.217 5.688,0.65c1.591,0.433 2.9,1.05 3.925,1.85c1.025,0.8 1.779,1.779 2.262,2.938c0.484,1.158 0.725,2.462 0.725,3.912c0,0.883 -0.137,1.729 -0.412,2.538c-0.275,0.808 -0.688,1.562 -1.238,2.262c-0.55,0.7 -1.246,1.329 -2.087,1.887c-0.842,0.559 -1.829,1.013 -2.963,1.363c2.634,0.5 4.613,1.438 5.938,2.813c1.325,1.375 1.987,3.179 1.987,5.412c0,1.517 -0.279,2.9 -0.837,4.15c-0.559,1.25 -1.375,2.325 -2.45,3.225c-1.075,0.9 -2.396,1.596 -3.963,2.088c-1.566,0.491 -3.35,0.737 -5.35,0.737l-12.65,0l0,-35.825l11.425,0Z" style="fill-rule:nonzero;"/><path d="M648.188,274.425c-2.05,0.067 -3.796,0.229 -5.237,0.488c-1.442,0.258 -2.617,0.595 -3.525,1.012c-0.909,0.417 -1.567,0.908 -1.975,1.475c-0.409,0.567 -0.613,1.2 -0.613,1.9c0,0.667 0.109,1.242 0.325,1.725c0.217,0.483 0.513,0.879 0.888,1.188c0.375,0.308 0.816,0.533 1.325,0.675c0.508,0.141 1.054,0.212 1.637,0.212c0.784,0 1.5,-0.079 2.15,-0.237c0.65,-0.159 1.263,-0.388 1.838,-0.688c0.575,-0.3 1.125,-0.658 1.65,-1.075c0.525,-0.417 1.037,-0.892 1.537,-1.425l0,-5.25Zm-14.375,-10.35c1.4,-1.35 2.909,-2.358 4.525,-3.025c1.617,-0.667 3.409,-1 5.375,-1c1.417,0 2.675,0.233 3.775,0.7c1.1,0.467 2.025,1.117 2.775,1.95c0.75,0.833 1.317,1.842 1.7,3.025c0.384,1.183 0.575,2.483 0.575,3.9l0,16.2l-1.975,0c-0.433,0 -0.766,-0.071 -1,-0.212c-0.233,-0.142 -0.416,-0.421 -0.55,-0.838l-0.5,-2.4c-0.666,0.617 -1.316,1.163 -1.95,1.638c-0.633,0.475 -1.3,0.875 -2,1.2c-0.7,0.325 -1.446,0.575 -2.237,0.75c-0.792,0.175 -1.671,0.262 -2.638,0.262c-0.983,0 -1.908,-0.137 -2.775,-0.412c-0.866,-0.275 -1.621,-0.688 -2.262,-1.238c-0.642,-0.55 -1.15,-1.246 -1.525,-2.087c-0.375,-0.842 -0.563,-1.838 -0.563,-2.988c0,-1 0.275,-1.962 0.825,-2.887c0.55,-0.925 1.442,-1.746 2.675,-2.463c1.234,-0.717 2.842,-1.304 4.825,-1.762c1.984,-0.459 4.417,-0.721 7.3,-0.788l0,-1.975c0,-1.967 -0.425,-3.454 -1.275,-4.462c-0.85,-1.009 -2.091,-1.513 -3.725,-1.513c-1.1,0 -2.021,0.138 -2.762,0.413c-0.742,0.275 -1.384,0.583 -1.925,0.925c-0.542,0.341 -1.009,0.65 -1.4,0.925c-0.392,0.275 -0.779,0.412 -1.163,0.412c-0.3,0 -0.558,-0.079 -0.775,-0.237c-0.216,-0.159 -0.4,-0.355 -0.55,-0.588l-0.8,-1.425Z" style="fill-rule:nonzero;"/><path d="M663.513,264.175c0.55,-0.617 1.134,-1.175 1.75,-1.675c0.617,-0.5 1.271,-0.929 1.963,-1.287c0.691,-0.359 1.425,-0.634 2.2,-0.825c0.775,-0.192 1.612,-0.288 2.512,-0.288c1.384,0 2.604,0.229 3.663,0.688c1.058,0.458 1.941,1.108 2.65,1.95c0.708,0.841 1.246,1.854 1.612,3.037c0.367,1.183 0.55,2.492 0.55,3.925l0,16.125l-4.475,0l0,-16.125c0,-1.917 -0.437,-3.404 -1.312,-4.462c-0.875,-1.059 -2.204,-1.588 -3.988,-1.588c-1.316,0 -2.546,0.317 -3.687,0.95c-1.142,0.633 -2.196,1.492 -3.163,2.575l0,18.65l-4.475,0l0,-25.325l2.675,0c0.634,0 1.025,0.308 1.175,0.925l0.35,2.75Z" style="fill-rule:nonzero;"/><path d="M700.938,274.425c-2.05,0.067 -3.796,0.229 -5.237,0.488c-1.442,0.258 -2.617,0.595 -3.525,1.012c-0.909,0.417 -1.567,0.908 -1.975,1.475c-0.409,0.567 -0.613,1.2 -0.613,1.9c0,0.667 0.109,1.242 0.325,1.725c0.217,0.483 0.513,0.879 0.888,1.188c0.375,0.308 0.816,0.533 1.325,0.675c0.508,0.141 1.054,0.212 1.637,0.212c0.784,0 1.5,-0.079 2.15,-0.237c0.65,-0.159 1.263,-0.388 1.838,-0.688c0.575,-0.3 1.125,-0.658 1.65,-1.075c0.525,-0.417 1.037,-0.892 1.537,-1.425l0,-5.25Zm-14.375,-10.35c1.4,-1.35 2.909,-2.358 4.525,-3.025c1.617,-0.667 3.409,-1 5.375,-1c1.417,0 2.675,0.233 3.775,0.7c1.1,0.467 2.025,1.117 2.775,1.95c0.75,0.833 1.317,1.842 1.7,3.025c0.384,1.183 0.575,2.483 0.575,3.9l0,16.2l-1.975,0c-0.433,0 -0.766,-0.071 -1,-0.212c-0.233,-0.142 -0.416,-0.421 -0.55,-0.838l-0.5,-2.4c-0.666,0.617 -1.316,1.163 -1.95,1.638c-0.633,0.475 -1.3,0.875 -2,1.2c-0.7,0.325 -1.446,0.575 -2.237,0.75c-0.792,0.175 -1.671,0.262 -2.638,0.262c-0.983,0 -1.908,-0.137 -2.775,-0.412c-0.866,-0.275 -1.621,-0.688 -2.262,-1.238c-0.642,-0.55 -1.15,-1.246 -1.525,-2.087c-0.375,-0.842 -0.563,-1.838 -0.563,-2.988c0,-1 0.275,-1.962 0.825,-2.887c0.55,-0.925 1.442,-1.746 2.675,-2.463c1.234,-0.717 2.842,-1.304 4.825,-1.762c1.984,-0.459 4.417,-0.721 7.3,-0.788l0,-1.975c0,-1.967 -0.425,-3.454 -1.275,-4.462c-0.85,-1.009 -2.091,-1.513 -3.725,-1.513c-1.1,0 -2.021,0.138 -2.762,0.413c-0.742,0.275 -1.384,0.583 -1.925,0.925c-0.542,0.341 -1.009,0.65 -1.4,0.925c-0.392,0.275 -0.779,0.412 -1.163,0.412c-0.3,0 -0.558,-0.079 -0.775,-0.237c-0.216,-0.159 -0.4,-0.355 -0.55,-0.588l-0.8,-1.425Z" style="fill-rule:nonzero;"/><path d="M716.263,264.175c0.55,-0.617 1.134,-1.175 1.75,-1.675c0.617,-0.5 1.271,-0.929 1.963,-1.287c0.691,-0.359 1.425,-0.634 2.2,-0.825c0.775,-0.192 1.612,-0.288 2.512,-0.288c1.384,0 2.604,0.229 3.663,0.688c1.058,0.458 1.941,1.108 2.65,1.95c0.708,0.841 1.246,1.854 1.612,3.037c0.367,1.183 0.55,2.492 0.55,3.925l0,16.125l-4.475,0l0,-16.125c0,-1.917 -0.437,-3.404 -1.312,-4.462c-0.875,-1.059 -2.204,-1.588 -3.988,-1.588c-1.316,0 -2.546,0.317 -3.687,0.95c-1.142,0.633 -2.196,1.492 -3.163,2.575l0,18.65l-4.475,0l0,-25.325l2.675,0c0.634,0 1.025,0.308 1.175,0.925l0.35,2.75Z" style="fill-rule:nonzero;"/><path d="M756.913,270.4c0,-1.033 -0.146,-1.979 -0.437,-2.837c-0.292,-0.859 -0.717,-1.6 -1.275,-2.225c-0.559,-0.625 -1.238,-1.109 -2.038,-1.45c-0.8,-0.342 -1.708,-0.513 -2.725,-0.513c-2.133,0 -3.821,0.621 -5.062,1.863c-1.242,1.241 -2.013,2.962 -2.313,5.162l13.85,0Zm3.6,11.875c-0.55,0.667 -1.208,1.246 -1.975,1.738c-0.766,0.491 -1.587,0.895 -2.462,1.212c-0.875,0.317 -1.779,0.554 -2.713,0.713c-0.933,0.158 -1.858,0.237 -2.775,0.237c-1.75,0 -3.362,-0.296 -4.837,-0.887c-1.475,-0.592 -2.75,-1.459 -3.825,-2.6c-1.075,-1.142 -1.913,-2.555 -2.513,-4.238c-0.6,-1.683 -0.9,-3.617 -0.9,-5.8c0,-1.767 0.271,-3.417 0.813,-4.95c0.541,-1.533 1.321,-2.862 2.337,-3.987c1.017,-1.125 2.259,-2.009 3.725,-2.65c1.467,-0.642 3.117,-0.963 4.95,-0.963c1.517,0 2.921,0.254 4.213,0.763c1.291,0.508 2.408,1.241 3.35,2.2c0.941,0.958 1.679,2.141 2.212,3.55c0.534,1.408 0.8,3.012 0.8,4.812c0,0.7 -0.075,1.167 -0.225,1.4c-0.15,0.233 -0.433,0.35 -0.85,0.35l-16.925,0c0.05,1.6 0.271,2.992 0.663,4.175c0.391,1.183 0.937,2.171 1.637,2.963c0.7,0.791 1.534,1.383 2.5,1.775c0.967,0.391 2.05,0.587 3.25,0.587c1.117,0 2.079,-0.129 2.888,-0.387c0.808,-0.259 1.504,-0.538 2.087,-0.838c0.584,-0.3 1.071,-0.579 1.463,-0.837c0.391,-0.259 0.729,-0.388 1.012,-0.388c0.367,0 0.65,0.142 0.85,0.425l1.25,1.625Z" style="fill-rule:nonzero;"/><path d="M770.563,264.175c0.55,-0.617 1.134,-1.175 1.75,-1.675c0.617,-0.5 1.271,-0.929 1.963,-1.287c0.691,-0.359 1.425,-0.634 2.2,-0.825c0.775,-0.192 1.612,-0.288 2.512,-0.288c1.384,0 2.604,0.229 3.663,0.688c1.058,0.458 1.941,1.108 2.65,1.95c0.708,0.841 1.246,1.854 1.612,3.037c0.367,1.183 0.55,2.492 0.55,3.925l0,16.125l-4.475,0l0,-16.125c0,-1.917 -0.437,-3.404 -1.312,-4.462c-0.875,-1.059 -2.204,-1.588 -3.988,-1.588c-1.316,0 -2.546,0.317 -3.687,0.95c-1.142,0.633 -2.196,1.492 -3.163,2.575l0,18.65l-4.475,0l0,-25.325l2.675,0c0.634,0 1.025,0.308 1.175,0.925l0.35,2.75Z" style="fill-rule:nonzero;"/><path d="M819.113,283.075c0,-0.433 0.079,-0.842 0.238,-1.225c0.158,-0.383 0.375,-0.717 0.65,-1c0.275,-0.283 0.604,-0.508 0.987,-0.675c0.384,-0.167 0.792,-0.25 1.225,-0.25c0.434,0 0.842,0.083 1.225,0.25c0.384,0.167 0.717,0.392 1,0.675c0.284,0.283 0.509,0.617 0.675,1c0.167,0.383 0.25,0.792 0.25,1.225c0,0.45 -0.083,0.863 -0.25,1.238c-0.166,0.375 -0.391,0.704 -0.675,0.987c-0.283,0.283 -0.616,0.504 -1,0.663c-0.383,0.158 -0.791,0.237 -1.225,0.237c-0.433,0 -0.841,-0.079 -1.225,-0.238c-0.383,-0.158 -0.712,-0.379 -0.987,-0.662c-0.275,-0.283 -0.492,-0.613 -0.65,-0.988c-0.159,-0.375 -0.238,-0.787 -0.238,-1.237Z" style="fill-rule:nonzero;"/><g><rect x="73.712" y="226" width="82.153" height="80.25" style="fill:none;stroke:#16167b;stroke-width:5px;"/><rect x="808.712" y="226" width="29.153" height="80.25" style="fill:none;stroke:#2a2a7b;stroke-width:5px;"/><rect x="169.288" y="226" width="121.5" height="80.25" style="fill:none;stroke:#e56d79;stroke-width:5px;"/><rect x="309.788" y="226" width="95.5" height="80.25" style="fill:none;stroke:#6eb3ce;stroke-width:5px;"/><rect x="420.788" y="226" width="149.5" height="80.25" style="fill:none;stroke:#6eb3ce;stroke-width:5px;"/><rect x="587.788" y="226" width="210.5" height="80.25" style="fill:none;stroke:#2a2a7b;stroke-width:5px;"/></g></g><g><rect x="85.863" y="408" width="4.85" height="35.825" style="fill-rule:nonzero;"/><path d="M115.663,423c-0.133,0.183 -0.266,0.325 -0.4,0.425c-0.133,0.1 -0.316,0.15 -0.55,0.15c-0.25,0 -0.525,-0.104 -0.825,-0.312c-0.3,-0.209 -0.671,-0.438 -1.112,-0.688c-0.442,-0.25 -0.984,-0.479 -1.625,-0.687c-0.642,-0.209 -1.429,-0.313 -2.363,-0.313c-1.25,0 -2.35,0.221 -3.3,0.663c-0.95,0.441 -1.746,1.079 -2.387,1.912c-0.642,0.833 -1.125,1.842 -1.45,3.025c-0.325,1.183 -0.488,2.508 -0.488,3.975c0,1.533 0.175,2.896 0.525,4.088c0.35,1.191 0.846,2.191 1.488,3c0.641,0.808 1.416,1.425 2.325,1.85c0.908,0.425 1.929,0.637 3.062,0.637c1.084,0 1.975,-0.129 2.675,-0.387c0.7,-0.259 1.279,-0.546 1.738,-0.863c0.458,-0.317 0.841,-0.604 1.15,-0.862c0.308,-0.259 0.612,-0.388 0.912,-0.388c0.367,0 0.65,0.142 0.85,0.425l1.25,1.625c-0.55,0.683 -1.175,1.267 -1.875,1.75c-0.7,0.483 -1.454,0.887 -2.262,1.213c-0.809,0.325 -1.654,0.562 -2.538,0.712c-0.883,0.15 -1.783,0.225 -2.7,0.225c-1.583,0 -3.054,-0.292 -4.412,-0.875c-1.359,-0.583 -2.538,-1.429 -3.538,-2.538c-1,-1.108 -1.783,-2.47 -2.35,-4.087c-0.566,-1.617 -0.85,-3.458 -0.85,-5.525c0,-1.883 0.263,-3.625 0.788,-5.225c0.525,-1.6 1.291,-2.979 2.3,-4.138c1.008,-1.158 2.25,-2.062 3.725,-2.712c1.475,-0.65 3.171,-0.975 5.087,-0.975c1.784,0 3.354,0.287 4.713,0.862c1.358,0.575 2.562,1.388 3.612,2.438l-1.175,1.6Z" style="fill-rule:nonzero;"/><path d="M126.388,421.875c1.084,-1.15 2.284,-2.067 3.6,-2.75c1.317,-0.683 2.834,-1.025 4.55,-1.025c1.384,0 2.604,0.229 3.663,0.688c1.058,0.458 1.941,1.108 2.65,1.95c0.708,0.841 1.246,1.854 1.612,3.037c0.367,1.183 0.55,2.492 0.55,3.925l0,16.125l-4.475,0l0,-16.125c0,-1.917 -0.437,-3.404 -1.312,-4.462c-0.875,-1.059 -2.204,-1.588 -3.988,-1.588c-1.316,0 -2.546,0.317 -3.687,0.95c-1.142,0.633 -2.196,1.492 -3.163,2.575l0,18.65l-4.475,0l0,-36.825l4.475,0l0,14.875Z" style="fill-rule:nonzero;"/><path d="M205.163,428.4c0,-1.033 -0.146,-1.979 -0.437,-2.837c-0.292,-0.859 -0.717,-1.601 -1.275,-2.226c-0.559,-0.625 -1.238,-1.108 -2.038,-1.45c-0.8,-0.341 -1.708,-0.512 -2.725,-0.512c-2.133,0 -3.821,0.621 -5.062,1.863c-1.242,1.241 -2.013,2.962 -2.313,5.162l13.85,0Zm3.6,11.875c-0.55,0.667 -1.208,1.246 -1.975,1.738c-0.766,0.491 -1.587,0.895 -2.462,1.212c-0.875,0.317 -1.779,0.554 -2.713,0.713c-0.933,0.158 -1.858,0.237 -2.775,0.237c-1.75,0 -3.362,-0.296 -4.837,-0.888c-1.475,-0.591 -2.75,-1.458 -3.825,-2.6c-1.075,-1.141 -1.913,-2.554 -2.513,-4.237c-0.6,-1.683 -0.9,-3.617 -0.9,-5.8c0,-1.767 0.271,-3.417 0.813,-4.95c0.541,-1.533 1.321,-2.863 2.337,-3.988c1.017,-1.125 2.259,-2.008 3.725,-2.649c1.467,-0.642 3.117,-0.963 4.95,-0.963c1.517,0 2.921,0.254 4.213,0.763c1.291,0.508 2.408,1.241 3.35,2.2c0.941,0.958 1.679,2.141 2.212,3.55c0.534,1.408 0.8,3.012 0.8,4.812c0,0.7 -0.075,1.167 -0.225,1.4c-0.15,0.233 -0.433,0.35 -0.85,0.35l-16.925,0c0.05,1.6 0.271,2.992 0.663,4.175c0.391,1.183 0.937,2.171 1.637,2.963c0.7,0.791 1.534,1.383 2.5,1.774c0.967,0.392 2.05,0.588 3.25,0.588c1.117,0 2.079,-0.129 2.888,-0.388c0.808,-0.258 1.504,-0.537 2.087,-0.837c0.584,-0.3 1.071,-0.579 1.463,-0.838c0.391,-0.258 0.729,-0.387 1.012,-0.387c0.367,0 0.65,0.142 0.85,0.425l1.25,1.625Z" style="fill-rule:nonzero;"/><path d="M229.363,422.675c-0.2,0.367 -0.508,0.55 -0.925,0.55c-0.25,0 -0.533,-0.092 -0.85,-0.275c-0.316,-0.183 -0.704,-0.387 -1.162,-0.613c-0.459,-0.224 -1.004,-0.433 -1.638,-0.625c-0.633,-0.191 -1.383,-0.287 -2.25,-0.287c-0.75,0 -1.425,0.096 -2.025,0.287c-0.6,0.192 -1.112,0.455 -1.537,0.788c-0.425,0.333 -0.75,0.721 -0.975,1.162c-0.225,0.442 -0.338,0.921 -0.338,1.438c0,0.65 0.188,1.192 0.563,1.625c0.375,0.433 0.871,0.808 1.487,1.125c0.617,0.317 1.317,0.596 2.1,0.838c0.784,0.241 1.588,0.5 2.413,0.774c0.825,0.276 1.629,0.58 2.412,0.913c0.784,0.333 1.484,0.75 2.1,1.25c0.617,0.5 1.113,1.113 1.488,1.837c0.375,0.726 0.562,1.596 0.562,2.613c0,1.167 -0.208,2.246 -0.625,3.238c-0.416,0.991 -1.033,1.849 -1.85,2.575c-0.816,0.725 -1.816,1.295 -3,1.712c-1.183,0.417 -2.55,0.625 -4.1,0.625c-1.766,0 -3.366,-0.287 -4.8,-0.862c-1.433,-0.575 -2.65,-1.313 -3.65,-2.213l1.05,-1.7c0.134,-0.217 0.292,-0.383 0.475,-0.5c0.184,-0.117 0.417,-0.175 0.7,-0.175c0.3,0 0.617,0.117 0.95,0.35c0.334,0.233 0.738,0.492 1.213,0.775c0.475,0.283 1.054,0.542 1.737,0.775c0.684,0.233 1.534,0.35 2.55,0.35c0.867,0 1.625,-0.112 2.275,-0.337c0.65,-0.225 1.192,-0.53 1.625,-0.913c0.434,-0.383 0.754,-0.825 0.963,-1.325c0.208,-0.5 0.312,-1.033 0.312,-1.6c0,-0.7 -0.187,-1.279 -0.562,-1.737c-0.375,-0.459 -0.871,-0.85 -1.488,-1.175c-0.616,-0.325 -1.321,-0.609 -2.112,-0.85c-0.792,-0.242 -1.6,-0.496 -2.425,-0.763c-0.825,-0.267 -1.634,-0.571 -2.425,-0.912c-0.792,-0.342 -1.496,-0.771 -2.113,-1.288c-0.616,-0.517 -1.112,-1.154 -1.487,-1.912c-0.375,-0.759 -0.563,-1.68 -0.563,-2.763c0,-0.967 0.2,-1.896 0.6,-2.787c0.4,-0.892 0.984,-1.675 1.75,-2.35c0.767,-0.675 1.709,-1.213 2.825,-1.613c1.117,-0.4 2.392,-0.6 3.825,-0.6c1.667,0 3.163,0.263 4.488,0.788c1.325,0.525 2.471,1.245 3.437,2.162l-1,1.625Z" style="fill-rule:nonzero;"/><path d="M251.013,422.675c-0.2,0.367 -0.508,0.55 -0.925,0.55c-0.25,0 -0.533,-0.092 -0.85,-0.275c-0.316,-0.183 -0.704,-0.387 -1.162,-0.613c-0.459,-0.224 -1.004,-0.433 -1.638,-0.625c-0.633,-0.191 -1.383,-0.287 -2.25,-0.287c-0.75,0 -1.425,0.096 -2.025,0.287c-0.6,0.192 -1.112,0.455 -1.537,0.788c-0.425,0.333 -0.75,0.721 -0.975,1.162c-0.225,0.442 -0.338,0.921 -0.338,1.438c0,0.65 0.188,1.192 0.563,1.625c0.375,0.433 0.871,0.808 1.487,1.125c0.617,0.317 1.317,0.596 2.1,0.838c0.784,0.241 1.588,0.5 2.413,0.774c0.825,0.276 1.629,0.58 2.412,0.913c0.784,0.333 1.484,0.75 2.1,1.25c0.617,0.5 1.113,1.113 1.488,1.837c0.375,0.726 0.562,1.596 0.562,2.613c0,1.167 -0.208,2.246 -0.625,3.238c-0.416,0.991 -1.033,1.849 -1.85,2.575c-0.816,0.725 -1.816,1.295 -3,1.712c-1.183,0.417 -2.55,0.625 -4.1,0.625c-1.766,0 -3.366,-0.287 -4.8,-0.862c-1.433,-0.575 -2.65,-1.313 -3.65,-2.213l1.05,-1.7c0.134,-0.217 0.292,-0.383 0.475,-0.5c0.184,-0.117 0.417,-0.175 0.7,-0.175c0.3,0 0.617,0.117 0.95,0.35c0.334,0.233 0.738,0.492 1.213,0.775c0.475,0.283 1.054,0.542 1.737,0.775c0.684,0.233 1.534,0.35 2.55,0.35c0.867,0 1.625,-0.112 2.275,-0.337c0.65,-0.225 1.192,-0.53 1.625,-0.913c0.434,-0.383 0.754,-0.825 0.963,-1.325c0.208,-0.5 0.312,-1.033 0.312,-1.6c0,-0.7 -0.187,-1.279 -0.562,-1.737c-0.375,-0.459 -0.871,-0.85 -1.488,-1.175c-0.616,-0.325 -1.321,-0.609 -2.112,-0.85c-0.792,-0.242 -1.6,-0.496 -2.425,-0.763c-0.825,-0.267 -1.634,-0.571 -2.425,-0.912c-0.792,-0.342 -1.496,-0.771 -2.113,-1.288c-0.616,-0.517 -1.112,-1.154 -1.487,-1.912c-0.375,-0.759 -0.563,-1.68 -0.563,-2.763c0,-0.967 0.2,-1.896 0.6,-2.787c0.4,-0.892 0.984,-1.675 1.75,-2.35c0.767,-0.675 1.709,-1.213 2.825,-1.613c1.117,-0.4 2.392,-0.6 3.825,-0.6c1.667,0 3.163,0.263 4.488,0.788c1.325,0.525 2.471,1.245 3.437,2.162l-1,1.625Z" style="fill-rule:nonzero;"/><path d="M274.863,428.4c0,-1.033 -0.146,-1.979 -0.437,-2.837c-0.292,-0.859 -0.717,-1.601 -1.275,-2.226c-0.559,-0.625 -1.238,-1.108 -2.038,-1.45c-0.8,-0.341 -1.708,-0.512 -2.725,-0.512c-2.133,0 -3.821,0.621 -5.062,1.863c-1.242,1.241 -2.013,2.962 -2.313,5.162l13.85,0Zm3.6,11.875c-0.55,0.667 -1.208,1.246 -1.975,1.738c-0.766,0.491 -1.587,0.895 -2.462,1.212c-0.875,0.317 -1.779,0.554 -2.713,0.713c-0.933,0.158 -1.858,0.237 -2.775,0.237c-1.75,0 -3.362,-0.296 -4.837,-0.888c-1.475,-0.591 -2.75,-1.458 -3.825,-2.6c-1.075,-1.141 -1.913,-2.554 -2.513,-4.237c-0.6,-1.683 -0.9,-3.617 -0.9,-5.8c0,-1.767 0.271,-3.417 0.813,-4.95c0.541,-1.533 1.321,-2.863 2.337,-3.988c1.017,-1.125 2.259,-2.008 3.725,-2.649c1.467,-0.642 3.117,-0.963 4.95,-0.963c1.517,0 2.921,0.254 4.213,0.763c1.291,0.508 2.408,1.241 3.35,2.2c0.941,0.958 1.679,2.141 2.212,3.55c0.534,1.408 0.8,3.012 0.8,4.812c0,0.7 -0.075,1.167 -0.225,1.4c-0.15,0.233 -0.433,0.35 -0.85,0.35l-16.925,0c0.05,1.6 0.271,2.992 0.663,4.175c0.391,1.183 0.937,2.171 1.637,2.963c0.7,0.791 1.534,1.383 2.5,1.774c0.967,0.392 2.05,0.588 3.25,0.588c1.117,0 2.079,-0.129 2.888,-0.388c0.808,-0.258 1.504,-0.537 2.087,-0.837c0.584,-0.3 1.071,-0.579 1.463,-0.838c0.391,-0.258 0.729,-0.387 1.012,-0.387c0.367,0 0.65,0.142 0.85,0.425l1.25,1.625Z" style="fill-rule:nonzero;"/><path d="M340.188,420.4c0,0.317 -0.054,0.625 -0.162,0.925c-0.109,0.3 -0.254,0.558 -0.438,0.775l-13.725,18.25l13.85,0l0,3.475l-19.075,0l0,-1.85c0,-0.217 0.05,-0.471 0.15,-0.762c0.1,-0.292 0.25,-0.571 0.45,-0.838l13.8,-18.375l-13.625,0l0,-3.5l18.775,0l0,1.9Z" style="fill-rule:nonzero;"/><path d="M344.563,441.075c0,-0.433 0.079,-0.842 0.238,-1.225c0.158,-0.383 0.375,-0.717 0.65,-1c0.275,-0.283 0.604,-0.508 0.987,-0.675c0.384,-0.167 0.792,-0.25 1.225,-0.25c0.434,0 0.842,0.083 1.225,0.25c0.384,0.167 0.717,0.392 1,0.675c0.284,0.283 0.509,0.617 0.675,1c0.167,0.383 0.25,0.792 0.25,1.225c0,0.45 -0.083,0.863 -0.25,1.238c-0.166,0.375 -0.391,0.704 -0.675,0.987c-0.283,0.283 -0.616,0.504 -1,0.663c-0.383,0.158 -0.791,0.237 -1.225,0.237c-0.433,0 -0.841,-0.079 -1.225,-0.238c-0.383,-0.158 -0.712,-0.379 -0.987,-0.662c-0.275,-0.283 -0.492,-0.613 -0.65,-0.988c-0.159,-0.375 -0.238,-0.787 -0.238,-1.237Z" style="fill-rule:nonzero;"/><path d="M370.738,439.975c1.384,0 2.575,-0.158 3.575,-0.475c1,-0.317 1.821,-0.762 2.463,-1.337c0.641,-0.575 1.112,-1.259 1.412,-2.05c0.3,-0.792 0.45,-1.663 0.45,-2.613c0,-1.85 -0.658,-3.312 -1.975,-4.387c-1.316,-1.075 -3.291,-1.613 -5.925,-1.613l-7.75,0l0,12.475l7.75,0Zm-7.75,-28.15l0,12.225l6.4,0c1.367,0 2.554,-0.15 3.563,-0.45c1.008,-0.3 1.841,-0.717 2.5,-1.25c0.658,-0.533 1.146,-1.179 1.462,-1.938c0.317,-0.758 0.475,-1.587 0.475,-2.487c0,-2.117 -0.633,-3.663 -1.9,-4.638c-1.266,-0.975 -3.233,-1.462 -5.9,-1.462l-6.6,0Zm6.6,-3.825c2.2,0 4.096,0.217 5.688,0.65c1.591,0.433 2.9,1.05 3.925,1.85c1.025,0.8 1.779,1.779 2.262,2.937c0.484,1.159 0.725,2.463 0.725,3.913c0,0.883 -0.137,1.729 -0.412,2.537c-0.275,0.809 -0.688,1.563 -1.238,2.263c-0.55,0.7 -1.246,1.329 -2.087,1.887c-0.842,0.559 -1.829,1.013 -2.963,1.363c2.634,0.5 4.613,1.437 5.938,2.812c1.325,1.375 1.987,3.18 1.987,5.413c0,1.517 -0.279,2.9 -0.837,4.15c-0.559,1.25 -1.375,2.325 -2.45,3.225c-1.075,0.9 -2.396,1.596 -3.963,2.087c-1.566,0.492 -3.35,0.738 -5.35,0.738l-12.65,0l0,-35.825l11.425,0Z" style="fill-rule:nonzero;"/><path d="M388.688,441.075c0,-0.433 0.079,-0.842 0.238,-1.225c0.158,-0.383 0.375,-0.717 0.65,-1c0.275,-0.283 0.604,-0.508 0.987,-0.675c0.384,-0.167 0.792,-0.25 1.225,-0.25c0.434,0 0.842,0.083 1.225,0.25c0.384,0.167 0.717,0.392 1,0.675c0.284,0.283 0.509,0.617 0.675,1c0.167,0.383 0.25,0.792 0.25,1.225c0,0.45 -0.083,0.863 -0.25,1.238c-0.166,0.375 -0.391,0.704 -0.675,0.987c-0.283,0.283 -0.616,0.504 -1,0.663c-0.383,0.158 -0.791,0.237 -1.225,0.237c-0.433,0 -0.841,-0.079 -1.225,-0.238c-0.383,-0.158 -0.712,-0.379 -0.987,-0.662c-0.275,-0.283 -0.492,-0.613 -0.65,-0.988c-0.159,-0.375 -0.238,-0.787 -0.238,-1.237Z" style="fill-rule:nonzero;"/><path d="M448.463,431.45c0.9,0 1.692,-0.125 2.375,-0.375c0.684,-0.25 1.259,-0.6 1.725,-1.05c0.467,-0.45 0.817,-0.987 1.05,-1.612c0.234,-0.625 0.35,-1.313 0.35,-2.063c0,-1.55 -0.471,-2.783 -1.412,-3.7c-0.942,-0.917 -2.304,-1.375 -4.088,-1.375c-1.8,0 -3.171,0.458 -4.112,1.375c-0.942,0.917 -1.413,2.15 -1.413,3.7c0,0.75 0.121,1.438 0.363,2.063c0.241,0.625 0.596,1.162 1.062,1.612c0.467,0.45 1.042,0.8 1.725,1.05c0.684,0.25 1.475,0.375 2.375,0.375Zm8.025,13.75c0,-0.617 -0.175,-1.117 -0.525,-1.5c-0.35,-0.383 -0.821,-0.683 -1.412,-0.9c-0.592,-0.217 -1.279,-0.371 -2.063,-0.462c-0.783,-0.092 -1.612,-0.163 -2.487,-0.213c-0.875,-0.05 -1.763,-0.1 -2.663,-0.15c-0.9,-0.05 -1.766,-0.133 -2.6,-0.25c-0.933,0.433 -1.696,0.979 -2.287,1.638c-0.592,0.658 -0.888,1.429 -0.888,2.312c0,0.567 0.146,1.096 0.438,1.588c0.291,0.491 0.737,0.916 1.337,1.274c0.6,0.359 1.354,0.642 2.263,0.851c0.908,0.208 1.979,0.312 3.212,0.312c1.2,0 2.275,-0.108 3.225,-0.325c0.95,-0.217 1.754,-0.525 2.413,-0.925c0.658,-0.4 1.162,-0.875 1.512,-1.425c0.35,-0.55 0.525,-1.158 0.525,-1.825Zm4.525,-25.7l0,1.65c0,0.55 -0.35,0.9 -1.05,1.05l-2.875,0.375c0.567,1.1 0.85,2.317 0.85,3.65c0,1.233 -0.237,2.354 -0.712,3.363c-0.475,1.008 -1.129,1.87 -1.963,2.587c-0.833,0.717 -1.833,1.267 -3,1.65c-1.166,0.383 -2.433,0.575 -3.8,0.575c-1.183,0 -2.3,-0.142 -3.35,-0.425c-0.533,0.333 -0.941,0.688 -1.225,1.063c-0.283,0.375 -0.425,0.754 -0.425,1.137c0,0.6 0.246,1.054 0.738,1.363c0.491,0.308 1.137,0.529 1.937,0.662c0.8,0.133 1.713,0.217 2.738,0.25c1.025,0.033 2.075,0.088 3.15,0.163c1.075,0.075 2.125,0.204 3.15,0.387c1.025,0.183 1.937,0.483 2.737,0.9c0.8,0.417 1.446,0.992 1.938,1.725c0.491,0.733 0.737,1.683 0.737,2.85c0,1.083 -0.271,2.133 -0.812,3.15c-0.542,1.017 -1.321,1.921 -2.338,2.713c-1.016,0.791 -2.262,1.425 -3.737,1.9c-1.475,0.475 -3.138,0.712 -4.988,0.712c-1.85,0 -3.466,-0.183 -4.85,-0.55c-1.383,-0.367 -2.533,-0.858 -3.45,-1.475c-0.916,-0.617 -1.604,-1.329 -2.062,-2.137c-0.459,-0.809 -0.688,-1.655 -0.688,-2.538c0,-1.25 0.392,-2.308 1.175,-3.175c0.784,-0.867 1.859,-1.558 3.225,-2.075c-0.75,-0.333 -1.346,-0.779 -1.787,-1.337c-0.442,-0.559 -0.663,-1.313 -0.663,-2.263c0,-0.367 0.067,-0.746 0.2,-1.137c0.134,-0.392 0.338,-0.784 0.613,-1.175c0.275,-0.392 0.612,-0.763 1.012,-1.113c0.4,-0.35 0.867,-0.658 1.4,-0.925c-1.25,-0.7 -2.225,-1.629 -2.925,-2.787c-0.7,-1.159 -1.05,-2.505 -1.05,-4.038c0,-1.233 0.238,-2.354 0.713,-3.362c0.475,-1.009 1.137,-1.867 1.987,-2.575c0.85,-0.709 1.863,-1.255 3.038,-1.638c1.175,-0.383 2.462,-0.575 3.862,-0.575c1.1,0 2.125,0.121 3.075,0.363c0.95,0.241 1.817,0.595 2.6,1.062l6.875,0Z" style="fill-rule:nonzero;"/><path d="M482.188,428.4c0,-1.033 -0.146,-1.979 -0.437,-2.837c-0.292,-0.859 -0.717,-1.601 -1.275,-2.226c-0.559,-0.625 -1.238,-1.108 -2.038,-1.45c-0.8,-0.341 -1.708,-0.512 -2.725,-0.512c-2.133,0 -3.821,0.621 -5.062,1.863c-1.242,1.241 -2.013,2.962 -2.313,5.162l13.85,0Zm3.6,11.875c-0.55,0.667 -1.208,1.246 -1.975,1.738c-0.766,0.491 -1.587,0.895 -2.462,1.212c-0.875,0.317 -1.779,0.554 -2.713,0.713c-0.933,0.158 -1.858,0.237 -2.775,0.237c-1.75,0 -3.362,-0.296 -4.837,-0.888c-1.475,-0.591 -2.75,-1.458 -3.825,-2.6c-1.075,-1.141 -1.913,-2.554 -2.513,-4.237c-0.6,-1.683 -0.9,-3.617 -0.9,-5.8c0,-1.767 0.271,-3.417 0.813,-4.95c0.541,-1.533 1.321,-2.863 2.337,-3.988c1.017,-1.125 2.259,-2.008 3.725,-2.649c1.467,-0.642 3.117,-0.963 4.95,-0.963c1.517,0 2.921,0.254 4.213,0.763c1.291,0.508 2.408,1.241 3.35,2.2c0.941,0.958 1.679,2.141 2.212,3.55c0.534,1.408 0.8,3.012 0.8,4.812c0,0.7 -0.075,1.167 -0.225,1.4c-0.15,0.233 -0.433,0.35 -0.85,0.35l-16.925,0c0.05,1.6 0.271,2.992 0.663,4.175c0.391,1.183 0.937,2.171 1.637,2.963c0.7,0.791 1.534,1.383 2.5,1.774c0.967,0.392 2.05,0.588 3.25,0.588c1.117,0 2.079,-0.129 2.888,-0.388c0.808,-0.258 1.504,-0.537 2.087,-0.837c0.584,-0.3 1.071,-0.579 1.463,-0.838c0.391,-0.258 0.729,-0.387 1.012,-0.387c0.367,0 0.65,0.142 0.85,0.425l1.25,1.625Z" style="fill-rule:nonzero;"/><path d="M495.863,423.575c0.8,-1.733 1.784,-3.087 2.95,-4.062c1.167,-0.975 2.592,-1.463 4.275,-1.463c0.534,0 1.046,0.058 1.538,0.175c0.491,0.117 0.929,0.3 1.312,0.55l-0.325,3.325c-0.1,0.417 -0.35,0.625 -0.75,0.625c-0.233,0 -0.575,-0.05 -1.025,-0.15c-0.45,-0.1 -0.958,-0.15 -1.525,-0.15c-0.8,0 -1.512,0.117 -2.137,0.35c-0.625,0.233 -1.184,0.579 -1.675,1.038c-0.492,0.458 -0.934,1.024 -1.325,1.7c-0.392,0.675 -0.746,1.445 -1.063,2.312l0,16l-4.475,0l0,-25.325l2.55,0c0.484,0 0.817,0.092 1,0.275c0.184,0.183 0.309,0.5 0.375,0.95l0.3,3.85Z" style="fill-rule:nonzero;"/><path d="M514.038,422.175c0.55,-0.617 1.134,-1.175 1.75,-1.675c0.617,-0.5 1.271,-0.929 1.963,-1.287c0.691,-0.359 1.425,-0.634 2.2,-0.825c0.775,-0.192 1.612,-0.288 2.512,-0.288c1.384,0 2.604,0.229 3.663,0.688c1.058,0.458 1.941,1.108 2.65,1.95c0.708,0.841 1.246,1.854 1.612,3.037c0.367,1.183 0.55,2.492 0.55,3.925l0,16.125l-4.475,0l0,-16.125c0,-1.917 -0.437,-3.404 -1.312,-4.462c-0.875,-1.059 -2.204,-1.588 -3.988,-1.588c-1.316,0 -2.546,0.317 -3.687,0.95c-1.142,0.633 -2.196,1.492 -3.163,2.575l0,18.65l-4.475,0l0,-25.325l2.675,0c0.634,0 1.025,0.308 1.175,0.925l0.35,2.75Z" style="fill-rule:nonzero;"/><path d="M554.688,428.4c0,-1.033 -0.146,-1.979 -0.437,-2.837c-0.292,-0.859 -0.717,-1.601 -1.275,-2.226c-0.559,-0.625 -1.238,-1.108 -2.038,-1.45c-0.8,-0.341 -1.708,-0.512 -2.725,-0.512c-2.133,0 -3.821,0.621 -5.062,1.863c-1.242,1.241 -2.013,2.962 -2.313,5.162l13.85,0Zm3.6,11.875c-0.55,0.667 -1.208,1.246 -1.975,1.738c-0.766,0.491 -1.587,0.895 -2.462,1.212c-0.875,0.317 -1.779,0.554 -2.713,0.713c-0.933,0.158 -1.858,0.237 -2.775,0.237c-1.75,0 -3.362,-0.296 -4.837,-0.888c-1.475,-0.591 -2.75,-1.458 -3.825,-2.6c-1.075,-1.141 -1.913,-2.554 -2.513,-4.237c-0.6,-1.683 -0.9,-3.617 -0.9,-5.8c0,-1.767 0.271,-3.417 0.813,-4.95c0.541,-1.533 1.321,-2.863 2.337,-3.988c1.017,-1.125 2.259,-2.008 3.725,-2.649c1.467,-0.642 3.117,-0.963 4.95,-0.963c1.517,0 2.921,0.254 4.213,0.763c1.291,0.508 2.408,1.241 3.35,2.2c0.941,0.958 1.679,2.141 2.212,3.55c0.534,1.408 0.8,3.012 0.8,4.812c0,0.7 -0.075,1.167 -0.225,1.4c-0.15,0.233 -0.433,0.35 -0.85,0.35l-16.925,0c0.05,1.6 0.271,2.992 0.663,4.175c0.391,1.183 0.937,2.171 1.637,2.963c0.7,0.791 1.534,1.383 2.5,1.774c0.967,0.392 2.05,0.588 3.25,0.588c1.117,0 2.079,-0.129 2.888,-0.388c0.808,-0.258 1.504,-0.537 2.087,-0.837c0.584,-0.3 1.071,-0.579 1.463,-0.838c0.391,-0.258 0.729,-0.387 1.012,-0.387c0.367,0 0.65,0.142 0.85,0.425l1.25,1.625Z" style="fill-rule:nonzero;"/><path d="M616.163,439.975c1.384,0 2.575,-0.158 3.575,-0.475c1,-0.317 1.821,-0.762 2.463,-1.337c0.641,-0.575 1.112,-1.259 1.412,-2.05c0.3,-0.792 0.45,-1.663 0.45,-2.613c0,-1.85 -0.658,-3.312 -1.975,-4.387c-1.316,-1.075 -3.291,-1.613 -5.925,-1.613l-7.75,0l0,12.475l7.75,0Zm-7.75,-28.15l0,12.225l6.4,0c1.367,0 2.554,-0.15 3.563,-0.45c1.008,-0.3 1.841,-0.717 2.5,-1.25c0.658,-0.533 1.146,-1.179 1.462,-1.938c0.317,-0.758 0.475,-1.587 0.475,-2.487c0,-2.117 -0.633,-3.663 -1.9,-4.638c-1.266,-0.975 -3.233,-1.462 -5.9,-1.462l-6.6,0Zm6.6,-3.825c2.2,0 4.096,0.217 5.688,0.65c1.591,0.433 2.9,1.05 3.925,1.85c1.025,0.8 1.779,1.779 2.262,2.937c0.484,1.159 0.725,2.463 0.725,3.913c0,0.883 -0.137,1.729 -0.412,2.537c-0.275,0.809 -0.688,1.563 -1.238,2.263c-0.55,0.7 -1.246,1.329 -2.087,1.887c-0.842,0.559 -1.829,1.013 -2.963,1.363c2.634,0.5 4.613,1.437 5.938,2.812c1.325,1.375 1.987,3.18 1.987,5.413c0,1.517 -0.279,2.9 -0.837,4.15c-0.559,1.25 -1.375,2.325 -2.45,3.225c-1.075,0.9 -2.396,1.596 -3.963,2.087c-1.566,0.492 -3.35,0.738 -5.35,0.738l-12.65,0l0,-35.825l11.425,0Z" style="fill-rule:nonzero;"/><path d="M648.188,432.425c-2.05,0.067 -3.796,0.229 -5.237,0.488c-1.442,0.258 -2.617,0.595 -3.525,1.012c-0.909,0.417 -1.567,0.908 -1.975,1.475c-0.409,0.567 -0.613,1.2 -0.613,1.9c0,0.667 0.109,1.242 0.325,1.725c0.217,0.483 0.513,0.879 0.888,1.188c0.375,0.308 0.816,0.533 1.325,0.675c0.508,0.141 1.054,0.212 1.637,0.212c0.784,0 1.5,-0.079 2.15,-0.237c0.65,-0.159 1.263,-0.388 1.838,-0.688c0.575,-0.3 1.125,-0.658 1.65,-1.075c0.525,-0.417 1.037,-0.892 1.537,-1.425l0,-5.25Zm-14.375,-10.35c1.4,-1.35 2.909,-2.358 4.525,-3.025c1.617,-0.667 3.409,-1 5.375,-1c1.417,0 2.675,0.233 3.775,0.7c1.1,0.467 2.025,1.117 2.775,1.95c0.75,0.833 1.317,1.842 1.7,3.025c0.384,1.183 0.575,2.483 0.575,3.9l0,16.2l-1.975,0c-0.433,0 -0.766,-0.071 -1,-0.212c-0.233,-0.142 -0.416,-0.421 -0.55,-0.838l-0.5,-2.4c-0.666,0.617 -1.316,1.163 -1.95,1.638c-0.633,0.475 -1.3,0.875 -2,1.2c-0.7,0.325 -1.446,0.575 -2.237,0.75c-0.792,0.175 -1.671,0.262 -2.638,0.262c-0.983,0 -1.908,-0.137 -2.775,-0.412c-0.866,-0.275 -1.621,-0.688 -2.262,-1.238c-0.642,-0.55 -1.15,-1.246 -1.525,-2.087c-0.375,-0.842 -0.563,-1.838 -0.563,-2.988c0,-1 0.275,-1.962 0.825,-2.887c0.55,-0.925 1.442,-1.746 2.675,-2.463c1.234,-0.717 2.842,-1.304 4.825,-1.762c1.984,-0.459 4.417,-0.721 7.3,-0.788l0,-1.975c0,-1.967 -0.425,-3.454 -1.275,-4.462c-0.85,-1.009 -2.091,-1.513 -3.725,-1.513c-1.1,0 -2.021,0.138 -2.762,0.413c-0.742,0.275 -1.384,0.583 -1.925,0.925c-0.542,0.341 -1.009,0.65 -1.4,0.925c-0.392,0.275 -0.779,0.412 -1.163,0.412c-0.3,0 -0.558,-0.079 -0.775,-0.237c-0.216,-0.159 -0.4,-0.355 -0.55,-0.588l-0.8,-1.425Z" style="fill-rule:nonzero;"/><path d="M663.513,422.175c0.55,-0.617 1.134,-1.175 1.75,-1.675c0.617,-0.5 1.271,-0.929 1.963,-1.287c0.691,-0.359 1.425,-0.634 2.2,-0.825c0.775,-0.192 1.612,-0.288 2.512,-0.288c1.384,0 2.604,0.229 3.663,0.688c1.058,0.458 1.941,1.108 2.65,1.95c0.708,0.841 1.246,1.854 1.612,3.037c0.367,1.183 0.55,2.492 0.55,3.925l0,16.125l-4.475,0l0,-16.125c0,-1.917 -0.437,-3.404 -1.312,-4.462c-0.875,-1.059 -2.204,-1.588 -3.988,-1.588c-1.316,0 -2.546,0.317 -3.687,0.95c-1.142,0.633 -2.196,1.492 -3.163,2.575l0,18.65l-4.475,0l0,-25.325l2.675,0c0.634,0 1.025,0.308 1.175,0.925l0.35,2.75Z" style="fill-rule:nonzero;"/><path d="M700.938,432.425c-2.05,0.067 -3.796,0.229 -5.237,0.488c-1.442,0.258 -2.617,0.595 -3.525,1.012c-0.909,0.417 -1.567,0.908 -1.975,1.475c-0.409,0.567 -0.613,1.2 -0.613,1.9c0,0.667 0.109,1.242 0.325,1.725c0.217,0.483 0.513,0.879 0.888,1.188c0.375,0.308 0.816,0.533 1.325,0.675c0.508,0.141 1.054,0.212 1.637,0.212c0.784,0 1.5,-0.079 2.15,-0.237c0.65,-0.159 1.263,-0.388 1.838,-0.688c0.575,-0.3 1.125,-0.658 1.65,-1.075c0.525,-0.417 1.037,-0.892 1.537,-1.425l0,-5.25Zm-14.375,-10.35c1.4,-1.35 2.909,-2.358 4.525,-3.025c1.617,-0.667 3.409,-1 5.375,-1c1.417,0 2.675,0.233 3.775,0.7c1.1,0.467 2.025,1.117 2.775,1.95c0.75,0.833 1.317,1.842 1.7,3.025c0.384,1.183 0.575,2.483 0.575,3.9l0,16.2l-1.975,0c-0.433,0 -0.766,-0.071 -1,-0.212c-0.233,-0.142 -0.416,-0.421 -0.55,-0.838l-0.5,-2.4c-0.666,0.617 -1.316,1.163 -1.95,1.638c-0.633,0.475 -1.3,0.875 -2,1.2c-0.7,0.325 -1.446,0.575 -2.237,0.75c-0.792,0.175 -1.671,0.262 -2.638,0.262c-0.983,0 -1.908,-0.137 -2.775,-0.412c-0.866,-0.275 -1.621,-0.688 -2.262,-1.238c-0.642,-0.55 -1.15,-1.246 -1.525,-2.087c-0.375,-0.842 -0.563,-1.838 -0.563,-2.988c0,-1 0.275,-1.962 0.825,-2.887c0.55,-0.925 1.442,-1.746 2.675,-2.463c1.234,-0.717 2.842,-1.304 4.825,-1.762c1.984,-0.459 4.417,-0.721 7.3,-0.788l0,-1.975c0,-1.967 -0.425,-3.454 -1.275,-4.462c-0.85,-1.009 -2.091,-1.513 -3.725,-1.513c-1.1,0 -2.021,0.138 -2.762,0.413c-0.742,0.275 -1.384,0.583 -1.925,0.925c-0.542,0.341 -1.009,0.65 -1.4,0.925c-0.392,0.275 -0.779,0.412 -1.163,0.412c-0.3,0 -0.558,-0.079 -0.775,-0.237c-0.216,-0.159 -0.4,-0.355 -0.55,-0.588l-0.8,-1.425Z" style="fill-rule:nonzero;"/><path d="M716.263,422.175c0.55,-0.617 1.134,-1.175 1.75,-1.675c0.617,-0.5 1.271,-0.929 1.963,-1.287c0.691,-0.359 1.425,-0.634 2.2,-0.825c0.775,-0.192 1.612,-0.288 2.512,-0.288c1.384,0 2.604,0.229 3.663,0.688c1.058,0.458 1.941,1.108 2.65,1.95c0.708,0.841 1.246,1.854 1.612,3.037c0.367,1.183 0.55,2.492 0.55,3.925l0,16.125l-4.475,0l0,-16.125c0,-1.917 -0.437,-3.404 -1.312,-4.462c-0.875,-1.059 -2.204,-1.588 -3.988,-1.588c-1.316,0 -2.546,0.317 -3.687,0.95c-1.142,0.633 -2.196,1.492 -3.163,2.575l0,18.65l-4.475,0l0,-25.325l2.675,0c0.634,0 1.025,0.308 1.175,0.925l0.35,2.75Z" style="fill-rule:nonzero;"/><path d="M756.913,428.4c0,-1.033 -0.146,-1.979 -0.437,-2.837c-0.292,-0.859 -0.717,-1.601 -1.275,-2.226c-0.559,-0.625 -1.238,-1.108 -2.038,-1.45c-0.8,-0.341 -1.708,-0.512 -2.725,-0.512c-2.133,0 -3.821,0.621 -5.062,1.863c-1.242,1.241 -2.013,2.962 -2.313,5.162l13.85,0Zm3.6,11.875c-0.55,0.667 -1.208,1.246 -1.975,1.738c-0.766,0.491 -1.587,0.895 -2.462,1.212c-0.875,0.317 -1.779,0.554 -2.713,0.713c-0.933,0.158 -1.858,0.237 -2.775,0.237c-1.75,0 -3.362,-0.296 -4.837,-0.888c-1.475,-0.591 -2.75,-1.458 -3.825,-2.6c-1.075,-1.141 -1.913,-2.554 -2.513,-4.237c-0.6,-1.683 -0.9,-3.617 -0.9,-5.8c0,-1.767 0.271,-3.417 0.813,-4.95c0.541,-1.533 1.321,-2.863 2.337,-3.988c1.017,-1.125 2.259,-2.008 3.725,-2.649c1.467,-0.642 3.117,-0.963 4.95,-0.963c1.517,0 2.921,0.254 4.213,0.763c1.291,0.508 2.408,1.241 3.35,2.2c0.941,0.958 1.679,2.141 2.212,3.55c0.534,1.408 0.8,3.012 0.8,4.812c0,0.7 -0.075,1.167 -0.225,1.4c-0.15,0.233 -0.433,0.35 -0.85,0.35l-16.925,0c0.05,1.6 0.271,2.992 0.663,4.175c0.391,1.183 0.937,2.171 1.637,2.963c0.7,0.791 1.534,1.383 2.5,1.774c0.967,0.392 2.05,0.588 3.25,0.588c1.117,0 2.079,-0.129 2.888,-0.388c0.808,-0.258 1.504,-0.537 2.087,-0.837c0.584,-0.3 1.071,-0.579 1.463,-0.838c0.391,-0.258 0.729,-0.387 1.012,-0.387c0.367,0 0.65,0.142 0.85,0.425l1.25,1.625Z" style="fill-rule:nonzero;"/><path d="M770.563,422.175c0.55,-0.617 1.134,-1.175 1.75,-1.675c0.617,-0.5 1.271,-0.929 1.963,-1.287c0.691,-0.359 1.425,-0.634 2.2,-0.825c0.775,-0.192 1.612,-0.288 2.512,-0.288c1.384,0 2.604,0.229 3.663,0.688c1.058,0.458 1.941,1.108 2.65,1.95c0.708,0.841 1.246,1.854 1.612,3.037c0.367,1.183 0.55,2.492 0.55,3.925l0,16.125l-4.475,0l0,-16.125c0,-1.917 -0.437,-3.404 -1.312,-4.462c-0.875,-1.059 -2.204,-1.588 -3.988,-1.588c-1.316,0 -2.546,0.317 -3.687,0.95c-1.142,0.633 -2.196,1.492 -3.163,2.575l0,18.65l-4.475,0l0,-25.325l2.675,0c0.634,0 1.025,0.308 1.175,0.925l0.35,2.75Z" style="fill-rule:nonzero;"/><path d="M819.113,441.075c0,-0.433 0.079,-0.842 0.238,-1.225c0.158,-0.383 0.375,-0.717 0.65,-1c0.275,-0.283 0.604,-0.508 0.987,-0.675c0.384,-0.167 0.792,-0.25 1.225,-0.25c0.434,0 0.842,0.083 1.225,0.25c0.384,0.167 0.717,0.392 1,0.675c0.284,0.283 0.509,0.617 0.675,1c0.167,0.383 0.25,0.792 0.25,1.225c0,0.45 -0.083,0.863 -0.25,1.238c-0.166,0.375 -0.391,0.704 -0.675,0.987c-0.283,0.283 -0.616,0.504 -1,0.663c-0.383,0.158 -0.791,0.237 -1.225,0.237c-0.433,0 -0.841,-0.079 -1.225,-0.238c-0.383,-0.158 -0.712,-0.379 -0.987,-0.662c-0.275,-0.283 -0.492,-0.613 -0.65,-0.988c-0.159,-0.375 -0.238,-0.787 -0.238,-1.237Z" style="fill-rule:nonzero;"/><g><rect x="73.712" y="384" width="82.153" height="80.25" style="fill:none;stroke:#16167b;stroke-width:5px;"/><rect x="808.712" y="384" width="29.153" height="80.25" style="fill:none;stroke:#2a2a7b;stroke-width:5px;"/><rect x="169.288" y="384" width="121.5" height="80.25" style="fill:none;stroke:#2a2a7b;stroke-width:5px;"/><rect x="309.788" y="384" width="95.5" height="80.25" style="fill:none;stroke:#e56d79;stroke-width:5px;"/><rect x="420.788" y="384" width="149.5" height="80.25" style="fill:none;stroke:#6eb3ce;stroke-width:5px;"/><rect x="587.788" y="384" width="210.5" height="80.25" style="fill:none;stroke:#6eb3ce;stroke-width:5px;"/></g></g><g><rect x="85.863" y="87" width="4.85" height="35.825" style="fill-rule:nonzero;"/><path d="M115.663,102c-0.133,0.183 -0.266,0.325 -0.4,0.425c-0.133,0.1 -0.316,0.15 -0.55,0.15c-0.25,0 -0.525,-0.104 -0.825,-0.312c-0.3,-0.209 -0.671,-0.438 -1.112,-0.688c-0.442,-0.25 -0.984,-0.479 -1.625,-0.687c-0.642,-0.209 -1.429,-0.313 -2.363,-0.313c-1.25,0 -2.35,0.221 -3.3,0.663c-0.95,0.441 -1.746,1.079 -2.387,1.912c-0.642,0.833 -1.125,1.842 -1.45,3.025c-0.325,1.183 -0.488,2.508 -0.488,3.975c0,1.533 0.175,2.896 0.525,4.088c0.35,1.191 0.846,2.191 1.488,3c0.641,0.808 1.416,1.425 2.325,1.85c0.908,0.425 1.929,0.637 3.062,0.637c1.084,0 1.975,-0.129 2.675,-0.387c0.7,-0.259 1.279,-0.546 1.738,-0.863c0.458,-0.317 0.841,-0.604 1.15,-0.862c0.308,-0.259 0.612,-0.388 0.912,-0.388c0.367,0 0.65,0.142 0.85,0.425l1.25,1.625c-0.55,0.683 -1.175,1.267 -1.875,1.75c-0.7,0.483 -1.454,0.888 -2.262,1.213c-0.809,0.325 -1.654,0.562 -2.538,0.712c-0.883,0.15 -1.783,0.225 -2.7,0.225c-1.583,0 -3.054,-0.292 -4.412,-0.875c-1.359,-0.583 -2.538,-1.429 -3.538,-2.537c-1,-1.109 -1.783,-2.471 -2.35,-4.088c-0.566,-1.617 -0.85,-3.458 -0.85,-5.525c0,-1.883 0.263,-3.625 0.788,-5.225c0.525,-1.6 1.291,-2.979 2.3,-4.137c1.008,-1.159 2.25,-2.063 3.725,-2.713c1.475,-0.65 3.171,-0.975 5.087,-0.975c1.784,0 3.354,0.288 4.713,0.863c1.358,0.575 2.562,1.387 3.612,2.437l-1.175,1.6Z" style="fill-rule:nonzero;"/><path d="M126.388,100.875c1.084,-1.15 2.284,-2.067 3.6,-2.75c1.317,-0.683 2.834,-1.025 4.55,-1.025c1.384,0 2.604,0.229 3.663,0.688c1.058,0.458 1.941,1.108 2.65,1.95c0.708,0.841 1.246,1.854 1.612,3.037c0.367,1.183 0.55,2.492 0.55,3.925l0,16.125l-4.475,0l0,-16.125c0,-1.917 -0.437,-3.404 -1.312,-4.462c-0.875,-1.059 -2.204,-1.588 -3.988,-1.588c-1.316,0 -2.546,0.317 -3.687,0.95c-1.142,0.633 -2.196,1.492 -3.163,2.575l0,18.65l-4.475,0l0,-36.825l4.475,0l0,14.875Z" style="fill-rule:nonzero;"/><path d="M205.163,107.4c0,-1.033 -0.146,-1.979 -0.437,-2.837c-0.292,-0.859 -0.717,-1.6 -1.275,-2.225c-0.559,-0.625 -1.238,-1.109 -2.038,-1.45c-0.8,-0.342 -1.708,-0.513 -2.725,-0.513c-2.133,0 -3.821,0.621 -5.062,1.863c-1.242,1.241 -2.013,2.962 -2.313,5.162l13.85,0Zm3.6,11.875c-0.55,0.667 -1.208,1.246 -1.975,1.738c-0.766,0.491 -1.587,0.895 -2.462,1.212c-0.875,0.317 -1.779,0.554 -2.713,0.713c-0.933,0.158 -1.858,0.237 -2.775,0.237c-1.75,0 -3.362,-0.296 -4.837,-0.887c-1.475,-0.592 -2.75,-1.459 -3.825,-2.6c-1.075,-1.142 -1.913,-2.555 -2.513,-4.238c-0.6,-1.683 -0.9,-3.617 -0.9,-5.8c0,-1.767 0.271,-3.417 0.813,-4.95c0.541,-1.533 1.321,-2.862 2.337,-3.987c1.017,-1.125 2.259,-2.009 3.725,-2.65c1.467,-0.642 3.117,-0.963 4.95,-0.963c1.517,0 2.921,0.254 4.213,0.763c1.291,0.508 2.408,1.241 3.35,2.2c0.941,0.958 1.679,2.141 2.212,3.55c0.534,1.408 0.8,3.012 0.8,4.812c0,0.7 -0.075,1.167 -0.225,1.4c-0.15,0.233 -0.433,0.35 -0.85,0.35l-16.925,0c0.05,1.6 0.271,2.992 0.663,4.175c0.391,1.183 0.937,2.171 1.637,2.963c0.7,0.791 1.534,1.383 2.5,1.775c0.967,0.391 2.05,0.587 3.25,0.587c1.117,0 2.079,-0.129 2.888,-0.387c0.808,-0.259 1.504,-0.538 2.087,-0.838c0.584,-0.3 1.071,-0.579 1.463,-0.837c0.391,-0.259 0.729,-0.388 1.012,-0.388c0.367,0 0.65,0.142 0.85,0.425l1.25,1.625Z" style="fill-rule:nonzero;"/><path d="M229.363,101.675c-0.2,0.367 -0.508,0.55 -0.925,0.55c-0.25,0 -0.533,-0.092 -0.85,-0.275c-0.316,-0.183 -0.704,-0.387 -1.162,-0.612c-0.459,-0.225 -1.004,-0.434 -1.638,-0.625c-0.633,-0.192 -1.383,-0.288 -2.25,-0.288c-0.75,0 -1.425,0.096 -2.025,0.288c-0.6,0.191 -1.112,0.454 -1.537,0.787c-0.425,0.333 -0.75,0.721 -0.975,1.163c-0.225,0.441 -0.338,0.92 -0.338,1.437c0,0.65 0.188,1.192 0.563,1.625c0.375,0.433 0.871,0.808 1.487,1.125c0.617,0.317 1.317,0.596 2.1,0.838c0.784,0.241 1.588,0.5 2.413,0.775c0.825,0.275 1.629,0.579 2.412,0.912c0.784,0.333 1.484,0.75 2.1,1.25c0.617,0.5 1.113,1.113 1.488,1.838c0.375,0.725 0.562,1.595 0.562,2.612c0,1.167 -0.208,2.246 -0.625,3.238c-0.416,0.991 -1.033,1.85 -1.85,2.575c-0.816,0.725 -1.816,1.295 -3,1.712c-1.183,0.417 -2.55,0.625 -4.1,0.625c-1.766,0 -3.366,-0.287 -4.8,-0.862c-1.433,-0.575 -2.65,-1.313 -3.65,-2.213l1.05,-1.7c0.134,-0.217 0.292,-0.383 0.475,-0.5c0.184,-0.117 0.417,-0.175 0.7,-0.175c0.3,0 0.617,0.117 0.95,0.35c0.334,0.233 0.738,0.492 1.213,0.775c0.475,0.283 1.054,0.542 1.737,0.775c0.684,0.233 1.534,0.35 2.55,0.35c0.867,0 1.625,-0.112 2.275,-0.337c0.65,-0.225 1.192,-0.53 1.625,-0.913c0.434,-0.383 0.754,-0.825 0.963,-1.325c0.208,-0.5 0.312,-1.033 0.312,-1.6c0,-0.7 -0.187,-1.279 -0.562,-1.737c-0.375,-0.459 -0.871,-0.85 -1.488,-1.175c-0.616,-0.325 -1.321,-0.609 -2.112,-0.85c-0.792,-0.242 -1.6,-0.496 -2.425,-0.763c-0.825,-0.267 -1.634,-0.571 -2.425,-0.912c-0.792,-0.342 -1.496,-0.771 -2.113,-1.288c-0.616,-0.517 -1.112,-1.154 -1.487,-1.912c-0.375,-0.759 -0.563,-1.68 -0.563,-2.763c0,-0.967 0.2,-1.896 0.6,-2.787c0.4,-0.892 0.984,-1.675 1.75,-2.35c0.767,-0.675 1.709,-1.213 2.825,-1.613c1.117,-0.4 2.392,-0.6 3.825,-0.6c1.667,0 3.163,0.263 4.488,0.788c1.325,0.525 2.471,1.245 3.437,2.162l-1,1.625Z" style="fill-rule:nonzero;"/><path d="M251.013,101.675c-0.2,0.367 -0.508,0.55 -0.925,0.55c-0.25,0 -0.533,-0.092 -0.85,-0.275c-0.316,-0.183 -0.704,-0.387 -1.162,-0.612c-0.459,-0.225 -1.004,-0.434 -1.638,-0.625c-0.633,-0.192 -1.383,-0.288 -2.25,-0.288c-0.75,0 -1.425,0.096 -2.025,0.288c-0.6,0.191 -1.112,0.454 -1.537,0.787c-0.425,0.333 -0.75,0.721 -0.975,1.163c-0.225,0.441 -0.338,0.92 -0.338,1.437c0,0.65 0.188,1.192 0.563,1.625c0.375,0.433 0.871,0.808 1.487,1.125c0.617,0.317 1.317,0.596 2.1,0.838c0.784,0.241 1.588,0.5 2.413,0.775c0.825,0.275 1.629,0.579 2.412,0.912c0.784,0.333 1.484,0.75 2.1,1.25c0.617,0.5 1.113,1.113 1.488,1.838c0.375,0.725 0.562,1.595 0.562,2.612c0,1.167 -0.208,2.246 -0.625,3.238c-0.416,0.991 -1.033,1.85 -1.85,2.575c-0.816,0.725 -1.816,1.295 -3,1.712c-1.183,0.417 -2.55,0.625 -4.1,0.625c-1.766,0 -3.366,-0.287 -4.8,-0.862c-1.433,-0.575 -2.65,-1.313 -3.65,-2.213l1.05,-1.7c0.134,-0.217 0.292,-0.383 0.475,-0.5c0.184,-0.117 0.417,-0.175 0.7,-0.175c0.3,0 0.617,0.117 0.95,0.35c0.334,0.233 0.738,0.492 1.213,0.775c0.475,0.283 1.054,0.542 1.737,0.775c0.684,0.233 1.534,0.35 2.55,0.35c0.867,0 1.625,-0.112 2.275,-0.337c0.65,-0.225 1.192,-0.53 1.625,-0.913c0.434,-0.383 0.754,-0.825 0.963,-1.325c0.208,-0.5 0.312,-1.033 0.312,-1.6c0,-0.7 -0.187,-1.279 -0.562,-1.737c-0.375,-0.459 -0.871,-0.85 -1.488,-1.175c-0.616,-0.325 -1.321,-0.609 -2.112,-0.85c-0.792,-0.242 -1.6,-0.496 -2.425,-0.763c-0.825,-0.267 -1.634,-0.571 -2.425,-0.912c-0.792,-0.342 -1.496,-0.771 -2.113,-1.288c-0.616,-0.517 -1.112,-1.154 -1.487,-1.912c-0.375,-0.759 -0.563,-1.68 -0.563,-2.763c0,-0.967 0.2,-1.896 0.6,-2.787c0.4,-0.892 0.984,-1.675 1.75,-2.35c0.767,-0.675 1.709,-1.213 2.825,-1.613c1.117,-0.4 2.392,-0.6 3.825,-0.6c1.667,0 3.163,0.263 4.488,0.788c1.325,0.525 2.471,1.245 3.437,2.162l-1,1.625Z" style="fill-rule:nonzero;"/><path d="M274.863,107.4c0,-1.033 -0.146,-1.979 -0.437,-2.837c-0.292,-0.859 -0.717,-1.6 -1.275,-2.225c-0.559,-0.625 -1.238,-1.109 -2.038,-1.45c-0.8,-0.342 -1.708,-0.513 -2.725,-0.513c-2.133,0 -3.821,0.621 -5.062,1.863c-1.242,1.241 -2.013,2.962 -2.313,5.162l13.85,0Zm3.6,11.875c-0.55,0.667 -1.208,1.246 -1.975,1.738c-0.766,0.491 -1.587,0.895 -2.462,1.212c-0.875,0.317 -1.779,0.554 -2.713,0.713c-0.933,0.158 -1.858,0.237 -2.775,0.237c-1.75,0 -3.362,-0.296 -4.837,-0.887c-1.475,-0.592 -2.75,-1.459 -3.825,-2.6c-1.075,-1.142 -1.913,-2.555 -2.513,-4.238c-0.6,-1.683 -0.9,-3.617 -0.9,-5.8c0,-1.767 0.271,-3.417 0.813,-4.95c0.541,-1.533 1.321,-2.862 2.337,-3.987c1.017,-1.125 2.259,-2.009 3.725,-2.65c1.467,-0.642 3.117,-0.963 4.95,-0.963c1.517,0 2.921,0.254 4.213,0.763c1.291,0.508 2.408,1.241 3.35,2.2c0.941,0.958 1.679,2.141 2.212,3.55c0.534,1.408 0.8,3.012 0.8,4.812c0,0.7 -0.075,1.167 -0.225,1.4c-0.15,0.233 -0.433,0.35 -0.85,0.35l-16.925,0c0.05,1.6 0.271,2.992 0.663,4.175c0.391,1.183 0.937,2.171 1.637,2.963c0.7,0.791 1.534,1.383 2.5,1.775c0.967,0.391 2.05,0.587 3.25,0.587c1.117,0 2.079,-0.129 2.888,-0.387c0.808,-0.259 1.504,-0.538 2.087,-0.838c0.584,-0.3 1.071,-0.579 1.463,-0.837c0.391,-0.259 0.729,-0.388 1.012,-0.388c0.367,0 0.65,0.142 0.85,0.425l1.25,1.625Z" style="fill-rule:nonzero;"/><path d="M340.188,99.4c0,0.317 -0.054,0.625 -0.162,0.925c-0.109,0.3 -0.254,0.558 -0.438,0.775l-13.725,18.25l13.85,0l0,3.475l-19.075,0l0,-1.85c0,-0.217 0.05,-0.471 0.15,-0.762c0.1,-0.292 0.25,-0.571 0.45,-0.838l13.8,-18.375l-13.625,0l0,-3.5l18.775,0l0,1.9Z" style="fill-rule:nonzero;"/><path d="M344.563,120.075c0,-0.433 0.079,-0.842 0.238,-1.225c0.158,-0.383 0.375,-0.717 0.65,-1c0.275,-0.283 0.604,-0.508 0.987,-0.675c0.384,-0.167 0.792,-0.25 1.225,-0.25c0.434,0 0.842,0.083 1.225,0.25c0.384,0.167 0.717,0.392 1,0.675c0.284,0.283 0.509,0.617 0.675,1c0.167,0.383 0.25,0.792 0.25,1.225c0,0.45 -0.083,0.863 -0.25,1.238c-0.166,0.375 -0.391,0.704 -0.675,0.987c-0.283,0.283 -0.616,0.504 -1,0.663c-0.383,0.158 -0.791,0.237 -1.225,0.237c-0.433,0 -0.841,-0.079 -1.225,-0.237c-0.383,-0.159 -0.712,-0.38 -0.987,-0.663c-0.275,-0.283 -0.492,-0.612 -0.65,-0.987c-0.159,-0.375 -0.238,-0.788 -0.238,-1.238Z" style="fill-rule:nonzero;"/><path d="M370.738,118.975c1.384,0 2.575,-0.158 3.575,-0.475c1,-0.317 1.821,-0.762 2.463,-1.337c0.641,-0.575 1.112,-1.259 1.412,-2.05c0.3,-0.792 0.45,-1.663 0.45,-2.613c0,-1.85 -0.658,-3.312 -1.975,-4.387c-1.316,-1.075 -3.291,-1.613 -5.925,-1.613l-7.75,0l0,12.475l7.75,0Zm-7.75,-28.15l0,12.225l6.4,0c1.367,0 2.554,-0.15 3.563,-0.45c1.008,-0.3 1.841,-0.717 2.5,-1.25c0.658,-0.533 1.146,-1.179 1.462,-1.937c0.317,-0.759 0.475,-1.588 0.475,-2.488c0,-2.117 -0.633,-3.662 -1.9,-4.637c-1.266,-0.975 -3.233,-1.463 -5.9,-1.463l-6.6,0Zm6.6,-3.825c2.2,0 4.096,0.217 5.688,0.65c1.591,0.433 2.9,1.05 3.925,1.85c1.025,0.8 1.779,1.779 2.262,2.938c0.484,1.158 0.725,2.462 0.725,3.912c0,0.883 -0.137,1.729 -0.412,2.538c-0.275,0.808 -0.688,1.562 -1.238,2.262c-0.55,0.7 -1.246,1.329 -2.087,1.888c-0.842,0.558 -1.829,1.012 -2.963,1.362c2.634,0.5 4.613,1.438 5.938,2.813c1.325,1.375 1.987,3.179 1.987,5.412c0,1.517 -0.279,2.9 -0.837,4.15c-0.559,1.25 -1.375,2.325 -2.45,3.225c-1.075,0.9 -2.396,1.596 -3.963,2.088c-1.566,0.491 -3.35,0.737 -5.35,0.737l-12.65,0l0,-35.825l11.425,0Z" style="fill-rule:nonzero;"/><path d="M388.688,120.075c0,-0.433 0.079,-0.842 0.238,-1.225c0.158,-0.383 0.375,-0.717 0.65,-1c0.275,-0.283 0.604,-0.508 0.987,-0.675c0.384,-0.167 0.792,-0.25 1.225,-0.25c0.434,0 0.842,0.083 1.225,0.25c0.384,0.167 0.717,0.392 1,0.675c0.284,0.283 0.509,0.617 0.675,1c0.167,0.383 0.25,0.792 0.25,1.225c0,0.45 -0.083,0.863 -0.25,1.238c-0.166,0.375 -0.391,0.704 -0.675,0.987c-0.283,0.283 -0.616,0.504 -1,0.663c-0.383,0.158 -0.791,0.237 -1.225,0.237c-0.433,0 -0.841,-0.079 -1.225,-0.237c-0.383,-0.159 -0.712,-0.38 -0.987,-0.663c-0.275,-0.283 -0.492,-0.612 -0.65,-0.987c-0.159,-0.375 -0.238,-0.788 -0.238,-1.238Z" style="fill-rule:nonzero;"/><path d="M448.463,110.45c0.9,0 1.692,-0.125 2.375,-0.375c0.684,-0.25 1.259,-0.6 1.725,-1.05c0.467,-0.45 0.817,-0.987 1.05,-1.612c0.234,-0.625 0.35,-1.313 0.35,-2.063c0,-1.55 -0.471,-2.783 -1.412,-3.7c-0.942,-0.917 -2.304,-1.375 -4.088,-1.375c-1.8,0 -3.171,0.458 -4.112,1.375c-0.942,0.917 -1.413,2.15 -1.413,3.7c0,0.75 0.121,1.438 0.363,2.063c0.241,0.625 0.596,1.162 1.062,1.612c0.467,0.45 1.042,0.8 1.725,1.05c0.684,0.25 1.475,0.375 2.375,0.375Zm8.025,13.75c0,-0.617 -0.175,-1.117 -0.525,-1.5c-0.35,-0.383 -0.821,-0.683 -1.412,-0.9c-0.592,-0.217 -1.279,-0.371 -2.063,-0.462c-0.783,-0.092 -1.612,-0.163 -2.487,-0.213c-0.875,-0.05 -1.763,-0.1 -2.663,-0.15c-0.9,-0.05 -1.766,-0.133 -2.6,-0.25c-0.933,0.433 -1.696,0.979 -2.287,1.638c-0.592,0.658 -0.888,1.429 -0.888,2.312c0,0.567 0.146,1.096 0.438,1.588c0.291,0.491 0.737,0.916 1.337,1.275c0.6,0.358 1.354,0.641 2.263,0.85c0.908,0.208 1.979,0.312 3.212,0.312c1.2,0 2.275,-0.108 3.225,-0.325c0.95,-0.217 1.754,-0.525 2.413,-0.925c0.658,-0.4 1.162,-0.875 1.512,-1.425c0.35,-0.55 0.525,-1.158 0.525,-1.825Zm4.525,-25.7l0,1.65c0,0.55 -0.35,0.9 -1.05,1.05l-2.875,0.375c0.567,1.1 0.85,2.317 0.85,3.65c0,1.233 -0.237,2.354 -0.712,3.362c-0.475,1.009 -1.129,1.871 -1.963,2.588c-0.833,0.717 -1.833,1.267 -3,1.65c-1.166,0.383 -2.433,0.575 -3.8,0.575c-1.183,0 -2.3,-0.142 -3.35,-0.425c-0.533,0.333 -0.941,0.688 -1.225,1.062c-0.283,0.375 -0.425,0.755 -0.425,1.138c0,0.6 0.246,1.054 0.738,1.362c0.491,0.309 1.137,0.53 1.937,0.663c0.8,0.133 1.713,0.217 2.738,0.25c1.025,0.033 2.075,0.088 3.15,0.162c1.075,0.075 2.125,0.205 3.15,0.388c1.025,0.183 1.937,0.483 2.737,0.9c0.8,0.417 1.446,0.992 1.938,1.725c0.491,0.733 0.737,1.683 0.737,2.85c0,1.083 -0.271,2.133 -0.812,3.15c-0.542,1.017 -1.321,1.921 -2.338,2.712c-1.016,0.792 -2.262,1.425 -3.737,1.9c-1.475,0.475 -3.138,0.713 -4.988,0.713c-1.85,0 -3.466,-0.183 -4.85,-0.55c-1.383,-0.367 -2.533,-0.858 -3.45,-1.475c-0.916,-0.617 -1.604,-1.329 -2.062,-2.138c-0.459,-0.808 -0.688,-1.654 -0.688,-2.537c0,-1.25 0.392,-2.308 1.175,-3.175c0.784,-0.867 1.859,-1.558 3.225,-2.075c-0.75,-0.333 -1.346,-0.779 -1.787,-1.337c-0.442,-0.559 -0.663,-1.313 -0.663,-2.263c0,-0.367 0.067,-0.746 0.2,-1.137c0.134,-0.392 0.338,-0.784 0.613,-1.175c0.275,-0.392 0.612,-0.763 1.012,-1.113c0.4,-0.35 0.867,-0.658 1.4,-0.925c-1.25,-0.7 -2.225,-1.629 -2.925,-2.787c-0.7,-1.159 -1.05,-2.505 -1.05,-4.038c0,-1.233 0.238,-2.354 0.713,-3.362c0.475,-1.009 1.137,-1.867 1.987,-2.576c0.85,-0.708 1.863,-1.254 3.038,-1.637c1.175,-0.383 2.462,-0.575 3.862,-0.575c1.1,0 2.125,0.121 3.075,0.362c0.95,0.242 1.817,0.596 2.6,1.063l6.875,0Z" style="fill-rule:nonzero;"/><path d="M482.188,107.4c0,-1.033 -0.146,-1.979 -0.437,-2.837c-0.292,-0.859 -0.717,-1.6 -1.275,-2.225c-0.559,-0.625 -1.238,-1.109 -2.038,-1.45c-0.8,-0.342 -1.708,-0.513 -2.725,-0.513c-2.133,0 -3.821,0.621 -5.062,1.863c-1.242,1.241 -2.013,2.962 -2.313,5.162l13.85,0Zm3.6,11.875c-0.55,0.667 -1.208,1.246 -1.975,1.738c-0.766,0.491 -1.587,0.895 -2.462,1.212c-0.875,0.317 -1.779,0.554 -2.713,0.713c-0.933,0.158 -1.858,0.237 -2.775,0.237c-1.75,0 -3.362,-0.296 -4.837,-0.887c-1.475,-0.592 -2.75,-1.459 -3.825,-2.6c-1.075,-1.142 -1.913,-2.555 -2.513,-4.238c-0.6,-1.683 -0.9,-3.617 -0.9,-5.8c0,-1.767 0.271,-3.417 0.813,-4.95c0.541,-1.533 1.321,-2.862 2.337,-3.987c1.017,-1.125 2.259,-2.009 3.725,-2.65c1.467,-0.642 3.117,-0.963 4.95,-0.963c1.517,0 2.921,0.254 4.213,0.763c1.291,0.508 2.408,1.241 3.35,2.2c0.941,0.958 1.679,2.141 2.212,3.55c0.534,1.408 0.8,3.012 0.8,4.812c0,0.7 -0.075,1.167 -0.225,1.4c-0.15,0.233 -0.433,0.35 -0.85,0.35l-16.925,0c0.05,1.6 0.271,2.992 0.663,4.175c0.391,1.183 0.937,2.171 1.637,2.963c0.7,0.791 1.534,1.383 2.5,1.775c0.967,0.391 2.05,0.587 3.25,0.587c1.117,0 2.079,-0.129 2.888,-0.387c0.808,-0.259 1.504,-0.538 2.087,-0.838c0.584,-0.3 1.071,-0.579 1.463,-0.837c0.391,-0.259 0.729,-0.388 1.012,-0.388c0.367,0 0.65,0.142 0.85,0.425l1.25,1.625Z" style="fill-rule:nonzero;"/><path d="M495.863,102.575c0.8,-1.733 1.784,-3.087 2.95,-4.062c1.167,-0.975 2.592,-1.463 4.275,-1.463c0.534,0 1.046,0.058 1.538,0.175c0.491,0.117 0.929,0.3 1.312,0.55l-0.325,3.325c-0.1,0.417 -0.35,0.625 -0.75,0.625c-0.233,0 -0.575,-0.05 -1.025,-0.15c-0.45,-0.1 -0.958,-0.15 -1.525,-0.15c-0.8,0 -1.512,0.117 -2.137,0.35c-0.625,0.233 -1.184,0.579 -1.675,1.038c-0.492,0.458 -0.934,1.025 -1.325,1.7c-0.392,0.675 -0.746,1.445 -1.063,2.312l0,16l-4.475,0l0,-25.325l2.55,0c0.484,0 0.817,0.092 1,0.275c0.184,0.183 0.309,0.5 0.375,0.95l0.3,3.85Z" style="fill-rule:nonzero;"/><path d="M514.038,101.175c0.55,-0.617 1.134,-1.175 1.75,-1.675c0.617,-0.5 1.271,-0.929 1.963,-1.287c0.691,-0.359 1.425,-0.634 2.2,-0.825c0.775,-0.192 1.612,-0.288 2.512,-0.288c1.384,0 2.604,0.229 3.663,0.688c1.058,0.458 1.941,1.108 2.65,1.95c0.708,0.841 1.246,1.854 1.612,3.037c0.367,1.183 0.55,2.492 0.55,3.925l0,16.125l-4.475,0l0,-16.125c0,-1.917 -0.437,-3.404 -1.312,-4.462c-0.875,-1.059 -2.204,-1.588 -3.988,-1.588c-1.316,0 -2.546,0.317 -3.687,0.95c-1.142,0.633 -2.196,1.492 -3.163,2.575l0,18.65l-4.475,0l0,-25.325l2.675,0c0.634,0 1.025,0.308 1.175,0.925l0.35,2.75Z" style="fill-rule:nonzero;"/><path d="M554.688,107.4c0,-1.033 -0.146,-1.979 -0.437,-2.837c-0.292,-0.859 -0.717,-1.6 -1.275,-2.225c-0.559,-0.625 -1.238,-1.109 -2.038,-1.45c-0.8,-0.342 -1.708,-0.513 -2.725,-0.513c-2.133,0 -3.821,0.621 -5.062,1.863c-1.242,1.241 -2.013,2.962 -2.313,5.162l13.85,0Zm3.6,11.875c-0.55,0.667 -1.208,1.246 -1.975,1.738c-0.766,0.491 -1.587,0.895 -2.462,1.212c-0.875,0.317 -1.779,0.554 -2.713,0.713c-0.933,0.158 -1.858,0.237 -2.775,0.237c-1.75,0 -3.362,-0.296 -4.837,-0.887c-1.475,-0.592 -2.75,-1.459 -3.825,-2.6c-1.075,-1.142 -1.913,-2.555 -2.513,-4.238c-0.6,-1.683 -0.9,-3.617 -0.9,-5.8c0,-1.767 0.271,-3.417 0.813,-4.95c0.541,-1.533 1.321,-2.862 2.337,-3.987c1.017,-1.125 2.259,-2.009 3.725,-2.65c1.467,-0.642 3.117,-0.963 4.95,-0.963c1.517,0 2.921,0.254 4.213,0.763c1.291,0.508 2.408,1.241 3.35,2.2c0.941,0.958 1.679,2.141 2.212,3.55c0.534,1.408 0.8,3.012 0.8,4.812c0,0.7 -0.075,1.167 -0.225,1.4c-0.15,0.233 -0.433,0.35 -0.85,0.35l-16.925,0c0.05,1.6 0.271,2.992 0.663,4.175c0.391,1.183 0.937,2.171 1.637,2.963c0.7,0.791 1.534,1.383 2.5,1.775c0.967,0.391 2.05,0.587 3.25,0.587c1.117,0 2.079,-0.129 2.888,-0.387c0.808,-0.259 1.504,-0.538 2.087,-0.838c0.584,-0.3 1.071,-0.579 1.463,-0.837c0.391,-0.259 0.729,-0.388 1.012,-0.388c0.367,0 0.65,0.142 0.85,0.425l1.25,1.625Z" style="fill-rule:nonzero;"/><path d="M616.163,118.975c1.384,0 2.575,-0.158 3.575,-0.475c1,-0.317 1.821,-0.762 2.463,-1.337c0.641,-0.575 1.112,-1.259 1.412,-2.05c0.3,-0.792 0.45,-1.663 0.45,-2.613c0,-1.85 -0.658,-3.312 -1.975,-4.387c-1.316,-1.075 -3.291,-1.613 -5.925,-1.613l-7.75,0l0,12.475l7.75,0Zm-7.75,-28.15l0,12.225l6.4,0c1.367,0 2.554,-0.15 3.563,-0.45c1.008,-0.3 1.841,-0.717 2.5,-1.25c0.658,-0.533 1.146,-1.179 1.462,-1.937c0.317,-0.759 0.475,-1.588 0.475,-2.488c0,-2.117 -0.633,-3.662 -1.9,-4.637c-1.266,-0.975 -3.233,-1.463 -5.9,-1.463l-6.6,0Zm6.6,-3.825c2.2,0 4.096,0.217 5.688,0.65c1.591,0.433 2.9,1.05 3.925,1.85c1.025,0.8 1.779,1.779 2.262,2.938c0.484,1.158 0.725,2.462 0.725,3.912c0,0.883 -0.137,1.729 -0.412,2.538c-0.275,0.808 -0.688,1.562 -1.238,2.262c-0.55,0.7 -1.246,1.329 -2.087,1.888c-0.842,0.558 -1.829,1.012 -2.963,1.362c2.634,0.5 4.613,1.438 5.938,2.813c1.325,1.375 1.987,3.179 1.987,5.412c0,1.517 -0.279,2.9 -0.837,4.15c-0.559,1.25 -1.375,2.325 -2.45,3.225c-1.075,0.9 -2.396,1.596 -3.963,2.088c-1.566,0.491 -3.35,0.737 -5.35,0.737l-12.65,0l0,-35.825l11.425,0Z" style="fill-rule:nonzero;"/><path d="M648.188,111.425c-2.05,0.067 -3.796,0.229 -5.237,0.488c-1.442,0.258 -2.617,0.595 -3.525,1.012c-0.909,0.417 -1.567,0.908 -1.975,1.475c-0.409,0.567 -0.613,1.2 -0.613,1.9c0,0.667 0.109,1.242 0.325,1.725c0.217,0.483 0.513,0.879 0.888,1.188c0.375,0.308 0.816,0.533 1.325,0.675c0.508,0.141 1.054,0.212 1.637,0.212c0.784,0 1.5,-0.079 2.15,-0.237c0.65,-0.159 1.263,-0.388 1.838,-0.688c0.575,-0.3 1.125,-0.658 1.65,-1.075c0.525,-0.417 1.037,-0.892 1.537,-1.425l0,-5.25Zm-14.375,-10.35c1.4,-1.35 2.909,-2.358 4.525,-3.025c1.617,-0.667 3.409,-1 5.375,-1c1.417,0 2.675,0.233 3.775,0.7c1.1,0.467 2.025,1.117 2.775,1.95c0.75,0.833 1.317,1.842 1.7,3.025c0.384,1.183 0.575,2.483 0.575,3.9l0,16.2l-1.975,0c-0.433,0 -0.766,-0.071 -1,-0.212c-0.233,-0.142 -0.416,-0.421 -0.55,-0.838l-0.5,-2.4c-0.666,0.617 -1.316,1.163 -1.95,1.638c-0.633,0.475 -1.3,0.875 -2,1.2c-0.7,0.325 -1.446,0.575 -2.237,0.75c-0.792,0.175 -1.671,0.262 -2.638,0.262c-0.983,0 -1.908,-0.137 -2.775,-0.412c-0.866,-0.275 -1.621,-0.688 -2.262,-1.238c-0.642,-0.55 -1.15,-1.246 -1.525,-2.087c-0.375,-0.842 -0.563,-1.838 -0.563,-2.988c0,-1 0.275,-1.962 0.825,-2.887c0.55,-0.925 1.442,-1.746 2.675,-2.463c1.234,-0.717 2.842,-1.304 4.825,-1.762c1.984,-0.459 4.417,-0.721 7.3,-0.788l0,-1.975c0,-1.967 -0.425,-3.454 -1.275,-4.463c-0.85,-1.008 -2.091,-1.512 -3.725,-1.512c-1.1,0 -2.021,0.138 -2.762,0.412c-0.742,0.275 -1.384,0.584 -1.925,0.925c-0.542,0.342 -1.009,0.65 -1.4,0.925c-0.392,0.275 -0.779,0.413 -1.163,0.413c-0.3,0 -0.558,-0.079 -0.775,-0.237c-0.216,-0.159 -0.4,-0.355 -0.55,-0.588l-0.8,-1.425Z" style="fill-rule:nonzero;"/><path d="M663.513,101.175c0.55,-0.617 1.134,-1.175 1.75,-1.675c0.617,-0.5 1.271,-0.929 1.963,-1.287c0.691,-0.359 1.425,-0.634 2.2,-0.825c0.775,-0.192 1.612,-0.288 2.512,-0.288c1.384,0 2.604,0.229 3.663,0.688c1.058,0.458 1.941,1.108 2.65,1.95c0.708,0.841 1.246,1.854 1.612,3.037c0.367,1.183 0.55,2.492 0.55,3.925l0,16.125l-4.475,0l0,-16.125c0,-1.917 -0.437,-3.404 -1.312,-4.462c-0.875,-1.059 -2.204,-1.588 -3.988,-1.588c-1.316,0 -2.546,0.317 -3.687,0.95c-1.142,0.633 -2.196,1.492 -3.163,2.575l0,18.65l-4.475,0l0,-25.325l2.675,0c0.634,0 1.025,0.308 1.175,0.925l0.35,2.75Z" style="fill-rule:nonzero;"/><path d="M700.938,111.425c-2.05,0.067 -3.796,0.229 -5.237,0.488c-1.442,0.258 -2.617,0.595 -3.525,1.012c-0.909,0.417 -1.567,0.908 -1.975,1.475c-0.409,0.567 -0.613,1.2 -0.613,1.9c0,0.667 0.109,1.242 0.325,1.725c0.217,0.483 0.513,0.879 0.888,1.188c0.375,0.308 0.816,0.533 1.325,0.675c0.508,0.141 1.054,0.212 1.637,0.212c0.784,0 1.5,-0.079 2.15,-0.237c0.65,-0.159 1.263,-0.388 1.838,-0.688c0.575,-0.3 1.125,-0.658 1.65,-1.075c0.525,-0.417 1.037,-0.892 1.537,-1.425l0,-5.25Zm-14.375,-10.35c1.4,-1.35 2.909,-2.358 4.525,-3.025c1.617,-0.667 3.409,-1 5.375,-1c1.417,0 2.675,0.233 3.775,0.7c1.1,0.467 2.025,1.117 2.775,1.95c0.75,0.833 1.317,1.842 1.7,3.025c0.384,1.183 0.575,2.483 0.575,3.9l0,16.2l-1.975,0c-0.433,0 -0.766,-0.071 -1,-0.212c-0.233,-0.142 -0.416,-0.421 -0.55,-0.838l-0.5,-2.4c-0.666,0.617 -1.316,1.163 -1.95,1.638c-0.633,0.475 -1.3,0.875 -2,1.2c-0.7,0.325 -1.446,0.575 -2.237,0.75c-0.792,0.175 -1.671,0.262 -2.638,0.262c-0.983,0 -1.908,-0.137 -2.775,-0.412c-0.866,-0.275 -1.621,-0.688 -2.262,-1.238c-0.642,-0.55 -1.15,-1.246 -1.525,-2.087c-0.375,-0.842 -0.563,-1.838 -0.563,-2.988c0,-1 0.275,-1.962 0.825,-2.887c0.55,-0.925 1.442,-1.746 2.675,-2.463c1.234,-0.717 2.842,-1.304 4.825,-1.762c1.984,-0.459 4.417,-0.721 7.3,-0.788l0,-1.975c0,-1.967 -0.425,-3.454 -1.275,-4.463c-0.85,-1.008 -2.091,-1.512 -3.725,-1.512c-1.1,0 -2.021,0.138 -2.762,0.412c-0.742,0.275 -1.384,0.584 -1.925,0.925c-0.542,0.342 -1.009,0.65 -1.4,0.925c-0.392,0.275 -0.779,0.413 -1.163,0.413c-0.3,0 -0.558,-0.079 -0.775,-0.237c-0.216,-0.159 -0.4,-0.355 -0.55,-0.588l-0.8,-1.425Z" style="fill-rule:nonzero;"/><path d="M716.263,101.175c0.55,-0.617 1.134,-1.175 1.75,-1.675c0.617,-0.5 1.271,-0.929 1.963,-1.287c0.691,-0.359 1.425,-0.634 2.2,-0.825c0.775,-0.192 1.612,-0.288 2.512,-0.288c1.384,0 2.604,0.229 3.663,0.688c1.058,0.458 1.941,1.108 2.65,1.95c0.708,0.841 1.246,1.854 1.612,3.037c0.367,1.183 0.55,2.492 0.55,3.925l0,16.125l-4.475,0l0,-16.125c0,-1.917 -0.437,-3.404 -1.312,-4.462c-0.875,-1.059 -2.204,-1.588 -3.988,-1.588c-1.316,0 -2.546,0.317 -3.687,0.95c-1.142,0.633 -2.196,1.492 -3.163,2.575l0,18.65l-4.475,0l0,-25.325l2.675,0c0.634,0 1.025,0.308 1.175,0.925l0.35,2.75Z" style="fill-rule:nonzero;"/><path d="M756.913,107.4c0,-1.033 -0.146,-1.979 -0.437,-2.837c-0.292,-0.859 -0.717,-1.6 -1.275,-2.225c-0.559,-0.625 -1.238,-1.109 -2.038,-1.45c-0.8,-0.342 -1.708,-0.513 -2.725,-0.513c-2.133,0 -3.821,0.621 -5.062,1.863c-1.242,1.241 -2.013,2.962 -2.313,5.162l13.85,0Zm3.6,11.875c-0.55,0.667 -1.208,1.246 -1.975,1.738c-0.766,0.491 -1.587,0.895 -2.462,1.212c-0.875,0.317 -1.779,0.554 -2.713,0.713c-0.933,0.158 -1.858,0.237 -2.775,0.237c-1.75,0 -3.362,-0.296 -4.837,-0.887c-1.475,-0.592 -2.75,-1.459 -3.825,-2.6c-1.075,-1.142 -1.913,-2.555 -2.513,-4.238c-0.6,-1.683 -0.9,-3.617 -0.9,-5.8c0,-1.767 0.271,-3.417 0.813,-4.95c0.541,-1.533 1.321,-2.862 2.337,-3.987c1.017,-1.125 2.259,-2.009 3.725,-2.65c1.467,-0.642 3.117,-0.963 4.95,-0.963c1.517,0 2.921,0.254 4.213,0.763c1.291,0.508 2.408,1.241 3.35,2.2c0.941,0.958 1.679,2.141 2.212,3.55c0.534,1.408 0.8,3.012 0.8,4.812c0,0.7 -0.075,1.167 -0.225,1.4c-0.15,0.233 -0.433,0.35 -0.85,0.35l-16.925,0c0.05,1.6 0.271,2.992 0.663,4.175c0.391,1.183 0.937,2.171 1.637,2.963c0.7,0.791 1.534,1.383 2.5,1.775c0.967,0.391 2.05,0.587 3.25,0.587c1.117,0 2.079,-0.129 2.888,-0.387c0.808,-0.259 1.504,-0.538 2.087,-0.838c0.584,-0.3 1.071,-0.579 1.463,-0.837c0.391,-0.259 0.729,-0.388 1.012,-0.388c0.367,0 0.65,0.142 0.85,0.425l1.25,1.625Z" style="fill-rule:nonzero;"/><path d="M770.563,101.175c0.55,-0.617 1.134,-1.175 1.75,-1.675c0.617,-0.5 1.271,-0.929 1.963,-1.287c0.691,-0.359 1.425,-0.634 2.2,-0.825c0.775,-0.192 1.612,-0.288 2.512,-0.288c1.384,0 2.604,0.229 3.663,0.688c1.058,0.458 1.941,1.108 2.65,1.95c0.708,0.841 1.246,1.854 1.612,3.037c0.367,1.183 0.55,2.492 0.55,3.925l0,16.125l-4.475,0l0,-16.125c0,-1.917 -0.437,-3.404 -1.312,-4.462c-0.875,-1.059 -2.204,-1.588 -3.988,-1.588c-1.316,0 -2.546,0.317 -3.687,0.95c-1.142,0.633 -2.196,1.492 -3.163,2.575l0,18.65l-4.475,0l0,-25.325l2.675,0c0.634,0 1.025,0.308 1.175,0.925l0.35,2.75Z" style="fill-rule:nonzero;"/><path d="M819.113,120.075c0,-0.433 0.079,-0.842 0.238,-1.225c0.158,-0.383 0.375,-0.717 0.65,-1c0.275,-0.283 0.604,-0.508 0.987,-0.675c0.384,-0.167 0.792,-0.25 1.225,-0.25c0.434,0 0.842,0.083 1.225,0.25c0.384,0.167 0.717,0.392 1,0.675c0.284,0.283 0.509,0.617 0.675,1c0.167,0.383 0.25,0.792 0.25,1.225c0,0.45 -0.083,0.863 -0.25,1.238c-0.166,0.375 -0.391,0.704 -0.675,0.987c-0.283,0.283 -0.616,0.504 -1,0.663c-0.383,0.158 -0.791,0.237 -1.225,0.237c-0.433,0 -0.841,-0.079 -1.225,-0.237c-0.383,-0.159 -0.712,-0.38 -0.987,-0.663c-0.275,-0.283 -0.492,-0.612 -0.65,-0.987c-0.159,-0.375 -0.238,-0.788 -0.238,-1.238Z" style="fill-rule:nonzero;"/><g><rect x="73.712" y="63" width="82.153" height="80.25" style="fill:none;stroke:#e56d79;stroke-width:5px;"/><rect x="808.712" y="63" width="29.153" height="80.25" style="fill:none;stroke:#2a2a7b;stroke-width:5px;"/><rect x="169.288" y="63" width="121.5" height="80.25" style="fill:none;stroke:#6eb3ce;stroke-width:5px;"/><rect x="309.788" y="63" width="95.5" height="80.25" style="fill:none;stroke:#6eb3ce;stroke-width:5px;"/><rect x="420.788" y="63" width="149.5" height="80.25" style="fill:none;stroke:#2a2a7b;stroke-width:5px;"/><rect x="587.788" y="63" width="210.5" height="80.25" style="fill:none;stroke:#2a2a7b;stroke-width:5px;"/></g></g><path d="M122.225,54.13c10.012,-3.271 20.451,-6.306 32.225,-8.445c42.253,-7.675 81.786,-2.806 118.69,6.626" style="fill:none;stroke:#e56d79;stroke-width:10px;"/><path d="M85.225,54.13c19.167,-9.686 39.151,-18.673 61.692,-25.007c80.89,-22.728 156.573,-8.31 227.223,19.62" style="fill:none;stroke:#e56d79;stroke-width:10px;"/><path d="M197.225,216.13c21.423,-8.35 43.759,-16.097 68.952,-21.556c90.41,-19.593 174.999,-7.164 253.963,16.913" style="fill:none;stroke:#e56d79;stroke-width:10px;"/><path d="M327.225,376.13c24.275,-8.35 49.586,-16.097 78.134,-21.556c102.449,-19.593 198.302,-7.164 287.781,16.913" style="fill:none;stroke:#e56d79;stroke-width:10px;"/><path d="M268.225,217.13c6.96,-3.538 14.217,-6.821 22.402,-9.135c29.374,-8.302 56.857,-3.035 82.513,7.167" style="fill:none;stroke:#e56d79;stroke-width:10px;"/><path d="M382.225,375.13c10.012,-3.271 20.451,-6.306 32.225,-8.445c42.253,-7.675 81.786,-2.806 118.69,6.626" style="fill:none;stroke:#e56d79;stroke-width:10px;"/></svg>